<?xml version="1.0" encoding="utf-8"?>
<!-- Generator: Adobe Illustrator 22.1.0, SVG Export Plug-In . SVG Version: 6.00 Build 0)  -->
<svg version="1.1" id="Слой_1" xmlns="http://www.w3.org/2000/svg" xmlns:xlink="http://www.w3.org/1999/xlink" x="0px" y="0px"
	 viewBox="0 0 20 24.6" style="enable-background:new 0 0 20 24.6;" xml:space="preserve">
<style type="text/css">
	.st0{fill:#72222E;}
</style>
<g>
	<path class="st0" d="M2.7,24.6c-0.2-0.1-0.4-0.1-0.6-0.2c-1.2-0.4-2-1.5-2-2.8c0-0.1,0-0.1,0-0.2C0,15.3,0,9.3,0,3.2
		c0-1.4,0.8-2.6,2.1-3C2.4,0.1,2.8,0,3.1,0c3.4,0,6.8,0,10.2,0c0.4,0,0.6,0.1,0.9,0.4c1.9,1.9,3.7,3.7,5.6,5.6
		C19.9,6.1,20,6.2,20,6.4c0,5,0,9.9,0,14.9c0,1.9-1.3,3.1-2.6,3.2c0,0,0,0-0.1,0C12.4,24.6,7.6,24.6,2.7,24.6z M12.3,1.5
		c-0.1,0-0.2,0-0.3,0c-2.9,0-5.8,0-8.8,0c-1.1,0-1.7,0.6-1.7,1.7c0,6,0,12.1,0,18.1c0,1.1,0.6,1.7,1.7,1.7c4.5,0,9,0,13.5,0
		c1.1,0,1.7-0.6,1.7-1.7c0-4.5,0-9,0-13.4c0-0.1,0-0.2,0-0.3c-1,0-2,0-3,0c-1.8,0-3.1-1.3-3.1-3.1c0-0.9,0-1.8,0-2.7
		C12.3,1.7,12.3,1.7,12.3,1.5z M18.4,6.2c-1.5-1.5-3-3-4.5-4.5c0,0,0,0,0,0c0,1,0,2,0,3c0,0.8,0.7,1.4,1.5,1.5
		C16.3,6.2,17.4,6.2,18.4,6.2z"/>
</g>
</svg>
