<?xml version="1.0" encoding="utf-8"?>
<!-- Generator: Adobe Illustrator 22.1.0, SVG Export Plug-In . SVG Version: 6.00 Build 0)  -->
<svg version="1.1" id="Слой_1" xmlns="http://www.w3.org/2000/svg" xmlns:xlink="http://www.w3.org/1999/xlink" x="0px" y="0px"
	 viewBox="0 0 47.6 44.6" style="enable-background:new 0 0 47.6 44.6;" xml:space="preserve">
<style type="text/css">
	.st0{fill:#C8C8C8;}
</style>
<g>
	<path class="st0" d="M47.6,11.1c0,0.2-0.1,0.3-0.1,0.5c-0.5,1.8-1.6,2.9-3.4,3.3c-1.2,0.3-2.3,0.6-3.5,0.8
		c-0.4,0.1-0.4,0.2-0.4,0.6c0,3.9,0,7.8,0,11.7c0,2.1-0.9,3.6-2.5,4.8c-1.7,1.2-3.6,1.8-5.6,2.3c-4,0.8-8,0.9-12.1,0.6
		C17.5,35.4,15,35,12.6,34c-1.4-0.6-2.7-1.3-3.7-2.5c-0.8-1-1.3-2.1-1.3-3.4c0-4,0-7.9,0-11.9c0-0.5-0.1-0.6-0.6-0.7
		c-1.1-0.2-2.2-0.5-3.3-0.7c-2.1-0.5-3.5-2.2-3.5-4.3c0-2.1,1.4-3.9,3.5-4.4c6.5-1.5,13-3,19.5-4.5c0,0,0.1,0,0.1-0.1
		c0.4,0,0.7,0,1.1,0c0,0,0.1,0.1,0.1,0.1c6.5,1.5,13,3,19.5,4.5c1.8,0.4,2.9,1.5,3.4,3.3c0,0.2,0.1,0.3,0.1,0.5
		C47.6,10.3,47.6,10.7,47.6,11.1z M10.6,16.4c0,0.2,0,0.4,0,0.6c0,3.6,0,7.2,0,10.7c0,0.8,0.3,1.5,0.9,2c0.9,0.7,1.9,1.2,3,1.6
		c2.4,0.9,4.9,1.2,7.4,1.3c3.6,0.2,7.1,0,10.6-1.1c1.4-0.4,2.7-1,3.9-1.9c0.6-0.5,0.9-1.1,0.9-1.9c0-3.6,0-7.2,0-10.8
		c0-0.2,0-0.4,0-0.6c-0.2,0-0.4,0.1-0.5,0.1c-3.9,0.9-7.8,1.8-11.7,2.7c-0.7,0.2-1.4,0.1-2.1,0c-1.4-0.2-2.7-0.6-4.1-0.9
		C16.1,17.7,13.4,17.1,10.6,16.4z M24,4.5c-0.2,0-0.4,0.1-0.5,0.1C17.1,6.1,10.8,7.6,4.4,9c-0.8,0.2-1.3,0.7-1.3,1.5
		c0,0.7,0.5,1.3,1.3,1.5c6.3,1.5,12.7,2.9,19,4.4c0.3,0.1,0.6,0.1,1,0c6.3-1.4,12.7-2.9,19-4.4c0.8-0.2,1.3-0.8,1.3-1.5
		c0-0.7-0.5-1.3-1.3-1.5c-5.6-1.3-11.2-2.6-16.8-3.9C25.7,4.9,24.8,4.7,24,4.5z"/>
	<path class="st0" d="M47.6,40.6c0,0.1-0.1,0.2-0.1,0.3c-0.4,1.5-1.8,2.5-3.3,2.2c-1.6-0.3-2.7-1.6-2.5-3.2c0.2-1.6,0.6-3.1,1.5-4.5
		c1-1.6,2-1.6,3,0c0.7,1.2,1.1,2.5,1.4,3.8c0,0.1,0.1,0.2,0.1,0.3C47.6,39.9,47.6,40.3,47.6,40.6z"/>
	<path class="st0" d="M46.1,24.6c0,2.2,0,4.4,0,6.6c0,1.1-1,1.9-2,1.5c-0.6-0.2-0.9-0.8-0.9-1.5c0-2.3,0-4.5,0-6.8
		c0-2.1,0-4.2,0-6.3c0-1,0.6-1.7,1.5-1.7c0.9,0,1.5,0.7,1.5,1.7C46.1,20.3,46.1,22.4,46.1,24.6z"/>
</g>
</svg>
