<?xml version="1.0" encoding="utf-8"?>
<!-- Generator: Adobe Illustrator 23.0.1, SVG Export Plug-In . SVG Version: 6.00 Build 0)  -->
<svg version="1.1"
	 id="svg19052" xmlns:cc="http://creativecommons.org/ns#" xmlns:dc="http://purl.org/dc/elements/1.1/" xmlns:inkscape="http://www.inkscape.org/namespaces/inkscape" xmlns:rdf="http://www.w3.org/1999/02/22-rdf-syntax-ns#" xmlns:sodipodi="http://sodipodi.sourceforge.net/DTD/sodipodi-0.dtd" xmlns:svg="http://www.w3.org/2000/svg"
	 xmlns="http://www.w3.org/2000/svg" xmlns:xlink="http://www.w3.org/1999/xlink" x="0px" y="0px" viewBox="0 0 40 40"
	 style="enable-background:new 0 0 40 40;" xml:space="preserve">
<style type="text/css">
	.st0{fill:#B48B91;}
	.st1{enable-background:new    ;}
	.st2{fill:#FFFFFF;}
</style>
<sodipodi:namedview  bordercolor="#666666" borderopacity="1" gridtolerance="10" guidetolerance="10" id="namedview19054" inkscape:current-layer="g19060" inkscape:cx="479.09063" inkscape:cy="73.316223" inkscape:pageopacity="0" inkscape:pageshadow="2" inkscape:window-height="988" inkscape:window-maximized="1" inkscape:window-width="1680" inkscape:window-x="1272" inkscape:window-y="-8" inkscape:zoom="2.3787301" objecttolerance="10" pagecolor="#ffffff" showgrid="false">
	</sodipodi:namedview>
<rect class="st0" width="40" height="40"/>
<g class="st1">
	<path class="st2" d="M17.9,19.1h-2.1c-0.2,0-0.3,0-0.3-0.1c0-0.1-0.1-0.2-0.1-0.3V17c0-0.1,0-0.2,0.1-0.3c0.1-0.1,0.2-0.1,0.3-0.1
		h2.1v-1.1c0-1.8,0.3-3,1.1-3.8c0.8-0.8,1.8-1.2,3.3-1.2c0.4,0,0.8,0,1.2,0.1c0.4,0.1,0.9,0.2,1.3,0.3c0.2,0.1,0.4,0.2,0.5,0.3
		c0.1,0.1,0.1,0.2,0.1,0.4l-0.5,1.9c0,0.1-0.1,0.2-0.1,0.2c0,0-0.1,0.1-0.1,0.1c0,0,0,0-0.1,0c0,0-0.1,0-0.2-0.1
		c-0.3-0.1-0.6-0.2-0.8-0.3s-0.5-0.1-0.8-0.1c-0.5,0-0.8,0.1-1.1,0.4s-0.4,0.8-0.4,1.6v1.3h3.1c0.2,0,0.3,0.1,0.4,0.1
		c0.1,0.1,0.1,0.2,0,0.4l-0.4,1.6c0,0.1-0.1,0.2-0.1,0.3s-0.1,0.1-0.3,0.1h-2.7v10.4c0,0.2,0,0.3-0.1,0.3s-0.1,0.1-0.3,0.1h-2.7
		c-0.2,0-0.3,0-0.3-0.1s-0.1-0.1-0.1-0.3V19.1z"/>
</g>
</svg>
