<?xml version="1.0" encoding="utf-8"?>
<!-- Generator: Adobe Illustrator 22.1.0, SVG Export Plug-In . SVG Version: 6.00 Build 0)  -->
<svg version="1.1" id="Слой_1" xmlns="http://www.w3.org/2000/svg" xmlns:xlink="http://www.w3.org/1999/xlink" x="0px" y="0px"
	 viewBox="0 0 15 18.4" style="enable-background:new 0 0 15 18.4;" xml:space="preserve">
<g>
	<path d="M4.9,18.4c-0.2,0-0.4-0.1-0.6-0.1c-0.9-0.2-1.7-0.5-2.4-1.1c-1-0.8-1.6-1.9-1.8-3.1c-0.2-1.5,0.1-2.9,1.1-4.1
		c0.3-0.4,0.7-0.8,1.1-1.1c0,0,0.1,0,0.1-0.1c0,0,0,0,0.1,0c0.1,0.3,0.2,0.6,0.3,1c0,0.1,0.1,0.3,0.1,0.4c0,0.1-0.2,0.2-0.3,0.3
		C1.2,11.9,1,14,2.1,15.5c0.7,0.9,1.6,1.4,2.7,1.5c0.9,0.1,1.7-0.1,2.4-0.6c1-0.7,1.6-1.6,1.7-2.8c0.1-0.8-0.1-1.6-0.5-2.3
		c0.1,0.1,0.1,0.1,0.2,0.2c0.1,0.1,0.1,0.1,0.2,0.2c0.5,0.5,0.9,0.9,1.4,1.4c0,0,0.1,0.1,0.1,0.2c0,1.1-0.3,2-0.9,2.9
		c-0.5,0.8-1.2,1.3-2,1.7c-0.5,0.3-1.1,0.4-1.7,0.5c0,0-0.1,0-0.1,0C5.3,18.4,5.1,18.4,4.9,18.4z"/>
	<path d="M3.1,0c0.2,0.1,0.5,0.2,0.7,0.3c1,0.6,1.2,2,0.5,2.9C3.8,3.8,3.1,4,2.3,3.7C1.4,3.5,0.9,2.6,1,1.7c0.1-0.8,0.7-1.4,1.5-1.6
		C2.5,0,2.6,0,2.6,0C2.8,0,3,0,3.1,0z"/>
	<path d="M4.4,6.9c0.3-0.2,0.7-0.3,1-0.5c0.7-0.3,1.3-0.7,2-1c0.5-0.2,1-0.1,1.2,0.4c0.2,0.4,0,0.9-0.4,1.2C7.1,7.5,6,8,5,8.6
		c-0.1,0-0.1,0.1-0.1,0.1C5,9,5,9.2,5.1,9.5c0.2-0.1,0.5-0.1,0.7-0.2C6.7,9,7.6,8.8,8.6,8.5c0.4-0.1,0.7,0,1,0.3
		c1.1,1.2,2.3,2.3,3.4,3.5c0.1,0.1,0.1,0.1,0.2,0.1c0.3-0.1,0.6-0.2,0.8-0.2c0.4-0.1,0.8,0.2,0.9,0.6c0.1,0.4-0.1,0.9-0.5,1
		c-0.5,0.2-1,0.3-1.5,0.4c-0.3,0.1-0.6,0-0.8-0.2c-0.6-0.6-1.2-1.2-1.8-1.8c-0.6-0.6-1.2-1.2-1.8-1.8c0,0-0.1-0.1-0.2,0
		c-1,0.3-1.9,0.5-2.9,0.8c-0.3,0.1-0.5,0.1-0.8,0.2c-0.6,0.1-1-0.1-1.1-0.7C3.3,9.5,3,8.3,2.7,7.1C2.5,6.5,2.3,5.8,2.2,5.2
		c-0.1-0.5,0.2-0.9,0.6-1c0.5-0.1,0.9,0.1,1,0.6C4,5.4,4.2,6,4.4,6.7C4.4,6.7,4.4,6.8,4.4,6.9z"/>
</g>
</svg>
