<?xml version="1.0" encoding="utf-8"?>
<!-- Generator: Adobe Illustrator 22.1.0, SVG Export Plug-In . SVG Version: 6.00 Build 0)  -->
<svg version="1.1" id="Слой_1" xmlns="http://www.w3.org/2000/svg" xmlns:xlink="http://www.w3.org/1999/xlink" x="0px" y="0px"
	 viewBox="0 0 47.6 44.6" style="enable-background:new 0 0 47.6 44.6;" xml:space="preserve">
<style type="text/css">
	.st0{fill:#C8C8C8;}
</style>
<g>
	<path class="st0" d="M3.7,35.6c0-8.8,0-17.6,0-26.4c0-0.1,0.1-0.2,0.1-0.3C4.2,6,6.3,3.8,9.1,3.1C9.4,3,9.7,3,10,2.9
		c9,0,17.9,0,26.9,0c0,0,0.1,0.1,0.1,0.1c2.1,0.5,3.2,1.8,3.2,4c0,3.5,0,7,0,10.5c0,0.4,0.1,0.6,0.4,0.8c2.2,1.8,3.4,4.2,3.4,7.1
		c0,3-1.1,5.5-3.4,7.4c-0.2,0.2-0.3,0.3-0.3,0.6c0,0.5,0,1.1,0,1.6c-0.1,3.7-3.1,6.8-6.8,6.8c-7.6,0-15.2,0-22.8,0
		c-3.1,0-5.8-2.2-6.6-5.2C3.9,36.3,3.8,35.9,3.7,35.6z M6.3,15.1c0,0.2,0,0.2,0,0.3c0,6.5,0,13.1,0,19.6c0,2.4,2,4.3,4.4,4.3
		c7.6,0,15.1,0,22.7,0c1,0,1.9-0.3,2.8-1c1.7-1.4,1.7-3.3,1.6-5.3c-0.2,0-0.3,0-0.5,0c-3.6,0-7.2,0-10.8,0c-4.1,0-7.1-3.9-6-7.9
		c0.7-2.7,3.2-4.6,6-4.6c3.6,0,7.3,0,10.9,0c0.2,0,0.3,0,0.5,0c0-0.8,0-1.5,0-2.2c0-1.1-0.4-1.6-1.6-1.6c-8.4,0-16.8,0-25.3,0
		c-0.5,0-1,0-1.4-0.1C8.3,16.4,7.2,15.9,6.3,15.1z M40.1,21.4c-0.9,1.4-1.4,1.6-3,1.6c-3.6,0-7.1,0-10.7,0c-2.1,0-3.8,1.7-3.8,3.8
		c0,2.1,1.7,3.8,3.8,3.8c4.2,0,8.4,0,12.6,0c0.2,0,0.4-0.1,0.6-0.3c1.1-1.1,1.7-2.5,1.9-4.1C41.6,24.4,41.2,22.8,40.1,21.4z
		 M37.7,14.4c0-0.1,0-0.3,0-0.4c0-2.4,0-4.8,0-7.2c0-0.9-0.5-1.4-1.4-1.4c-8.5,0-17,0-25.6,0c-2.8,0-4.9,2.5-4.4,5.3
		c0.2,0.8,0.5,1.5,1.2,2.2c0-0.2,0-0.4,0-0.5c0-1.4,0-2.9,0-4.3c0-1,0.5-1.5,1.4-1.5c8.7,0,17.3,0,26,0c1,0,1.4,0.5,1.5,1.4
		c0,1.9,0,3.8,0,5.7c0,0.1,0,0.3,0,0.4C36.9,14.3,37.3,14.3,37.7,14.4z M35.2,7.9c-8.8,0-17.6,0-26.4,0c0,0.4,0,0.8,0,1.2
		c8.8,0,17.6,0,26.4,0C35.2,8.7,35.2,8.3,35.2,7.9z M35.2,10.5c-8.8,0-17.6,0-26.4,0c0,0.4,0,0.8,0,1.2c8.8,0,17.6,0,26.4,0
		C35.2,11.3,35.2,10.9,35.2,10.5z M8.8,13c0,0.1,0,0.2,0,0.3c-0.1,0.4,0.1,0.7,0.5,0.7c0.5,0.1,1,0.2,1.5,0.2c8,0,16,0,24,0
		c0.1,0,0.3,0,0.4,0c0-0.4,0-0.8,0-1.3C26.3,13,17.6,13,8.8,13z"/>
	<path class="st0" d="M23.9,26.8c0-1.4,1.1-2.5,2.5-2.5c1.4,0,2.5,1.1,2.5,2.5c0,1.4-1.1,2.5-2.5,2.5C25,29.3,23.9,28.2,23.9,26.8z"
		/>
</g>
</svg>
