<?xml version="1.0" encoding="utf-8"?>
<!-- Generator: Adobe Illustrator 22.1.0, SVG Export Plug-In . SVG Version: 6.00 Build 0)  -->
<svg version="1.1" id="Слой_1" xmlns="http://www.w3.org/2000/svg" xmlns:xlink="http://www.w3.org/1999/xlink" x="0px" y="0px"
	 viewBox="0 0 12.2 15.3" style="enable-background:new 0 0 12.2 15.3;" xml:space="preserve">
<style type="text/css">
	.st0{fill:#72222E;}
</style>
<g>
	<path class="st0" d="M1.5,12.2c-0.5,0-1,0-1.5,0c0-0.5,0-1,0-1.5c0.5,0,1,0,1.5,0c0-0.5,0-1,0-1.5c-0.5,0-1,0-1.5,0
		c0-0.5,0-1,0-1.5c0.5,0,1,0,1.5,0c0-2.6,0-5.1,0-7.6c0.1,0,0.2,0,0.3,0c1.9,0,3.8,0,5.8,0c2.3,0,4.2,1.6,4.6,3.9
		c0.4,2.4-1.3,4.8-3.7,5.2c-0.3,0.1-0.7,0.1-1,0.1c-1.4,0-2.7,0-4.1,0c-0.1,0-0.2,0-0.3,0c0,0.5,0,1,0,1.5c1.3,0,2.5,0,3.8,0
		c0,0.5,0,1,0,1.5c-1.3,0-2.5,0-3.8,0c0,1,0,2,0,3.1c-0.5,0-1,0-1.5,0C1.5,14.3,1.5,13.3,1.5,12.2z M3,7.6c0.1,0,0.2,0,0.3,0
		c1.4,0,2.8,0,4.2,0c0.2,0,0.4,0,0.6,0c1.6-0.2,2.7-1.8,2.5-3.3c-0.2-1.6-1.5-2.7-3.1-2.7c-1.4,0-2.8,0-4.3,0c-0.1,0-0.2,0-0.2,0
		C3,3.6,3,5.6,3,7.6z"/>
</g>
</svg>
