<?xml version="1.0" encoding="utf-8"?>
<!-- Generator: Adobe Illustrator 22.1.0, SVG Export Plug-In . SVG Version: 6.00 Build 0)  -->
<svg version="1.1"
	 id="svg19052" inkscape:version="0.92.1 r15371" sodipodi:docname="ALLVAR.svg" xmlns:cc="http://creativecommons.org/ns#" xmlns:dc="http://purl.org/dc/elements/1.1/" xmlns:inkscape="http://www.inkscape.org/namespaces/inkscape" xmlns:rdf="http://www.w3.org/1999/02/22-rdf-syntax-ns#" xmlns:sodipodi="http://sodipodi.sourceforge.net/DTD/sodipodi-0.dtd" xmlns:svg="http://www.w3.org/2000/svg"
	 xmlns="http://www.w3.org/2000/svg" xmlns:xlink="http://www.w3.org/1999/xlink" x="0px" y="0px" viewBox="0 0 17 17"
	 style="enable-background:new 0 0 17 17;" xml:space="preserve">
<style type="text/css">
	.st0{fill:#7A1F2E;}
	.st1{fill:#FFFFFF;}
</style>
<sodipodi:namedview  bordercolor="#666666" borderopacity="1" gridtolerance="10" guidetolerance="10" id="namedview19054" inkscape:current-layer="g19060" inkscape:cx="479.09063" inkscape:cy="73.316223" inkscape:pageopacity="0" inkscape:pageshadow="2" inkscape:window-height="988" inkscape:window-maximized="1" inkscape:window-width="1680" inkscape:window-x="1272" inkscape:window-y="-8" inkscape:zoom="2.3787301" objecttolerance="10" pagecolor="#ffffff" showgrid="false">
	</sodipodi:namedview>
<path id="path36465" inkscape:connector-curvature="0" class="st0" d="M236.6-971.5c0.4,0,0.6,0.1,0.6,0.3c0,0.1,0,0.2-0.1,0.4l0,0
	l-0.5,3.6c0,0.3-0.3,0.5-0.7,0.5h-6v3.1h5c0.3,0,0.4,0,0.5,0.1s0.1,0.3,0.1,0.5v3.5c0,0.3,0,0.4-0.1,0.5s-0.3,0.1-0.5,0.1h-5v3.6
	h6.4c0.3,0,0.5,0,0.5,0.1c0.1,0.1,0.1,0.2,0.1,0.5v3.6c0,0.3,0,0.5-0.1,0.5c-0.1,0.1-0.2,0.1-0.5,0.1"/>
<g>
	<path class="st1" d="M1.6,10.9c-2.1-2.4-2.2-6-0.1-8.6c2.2-2.6,5.9-3.2,8.8-1.3C11.6,2,12.5,3.2,13,4.7c0.6,2.2,0.2,4.2-1.2,6.1
		c1.8,1.8,3.5,3.5,5.2,5.2c-0.3,0.3-0.6,0.6-0.9,0.9c-0.9-0.9-1.7-1.7-2.6-2.6c-0.9-0.9-1.8-1.8-2.6-2.6C7.9,14.1,3.9,13.6,1.6,10.9
		z M6.7,11.9c3-0.1,5.3-2.4,5.2-5.3c-0.1-3-2.5-5.3-5.4-5.2C3.6,1.4,1.3,3.8,1.3,6.7C1.4,9.6,3.8,12,6.7,11.9z"/>
</g>
</svg>
