<?xml version="1.0" encoding="utf-8"?>
<!-- Generator: Adobe Illustrator 22.1.0, SVG Export Plug-In . SVG Version: 6.00 Build 0)  -->
<svg version="1.1" id="Слой_1" xmlns="http://www.w3.org/2000/svg" xmlns:xlink="http://www.w3.org/1999/xlink" x="0px" y="0px"
	 viewBox="0 0 80.8 31" style="enable-background:new 0 0 80.8 31;" xml:space="preserve">
<style type="text/css">
	.st0{fill:#72222E;}
</style>
<g>
	<path class="st0" d="M80.8,13c-0.6,1.8-1.3,3.6-1.9,5.5c-1.1,3.5-2.2,7-3.2,10.5c-0.4,1.4-1.1,2-2.7,2c-14,0-28.1,0-42.1,0
		c-8.5,0-16.5-2.1-23.3-7.4c-4.2-3.3-7-7.4-7.6-12.8C-0.2,8.4,0.2,8,2.5,8.2C8,8.8,13.5,9.3,19,10c1,0.1,1.6-0.1,2.2-1
		c1.8-2.6,3.7-5.1,5.5-7.7C27.3,0.4,28-0.1,29.1,0c9,0.5,18,0.9,26.9,1.3c1.8,0.1,2.5,1.3,1.2,2.6c-2.7,2.9-2,6.4-2,9.9
		c2.2,0.2,4.4,0.5,6.6,0.7c0-1.2,0-2.2,0-3.4c-0.8-0.1-1.6-0.3-2.4-0.4c-0.9-0.1-1.5-0.5-1.4-1.5c0.1-1,0.9-1.2,1.7-1.1
		c3.8,0.5,7.5,1,11.3,1.5c2.7,0.4,5.3,0.7,8,1.1c0.7,0.1,1.2,0.6,1.9,1C80.8,12.1,80.8,12.5,80.8,13z M4.6,16.4
		c1.1,1.3,1.8,2.3,2.6,3.1c5.6,5.6,12.7,8.2,20.5,8.5c11.2,0.4,22.5,0.2,33.7,0.3c3.5,0,6.9,0,10.4,0c0.5,0,1.2-0.3,1.4-0.6
		c0.5-1.1,0.8-2.3,1.1-3.5C51.1,21.6,28.1,19,4.6,16.4z M75.8,18.8C51.5,16.2,27.2,13.6,3,11c-0.1,1.9,0.5,2.6,2.4,2.8
		c8.9,0.9,17.9,2,26.8,2.9c13.7,1.5,27.4,3,41.1,4.5C75.5,21.5,75.6,21.5,75.8,18.8z M52.3,13.5c0.7-3.2-0.9-6.7,1.8-9.6
		c-4.4-0.2-8.4-0.4-12.5-0.5c-0.4,3-0.9,5.9-1.3,8.9C44.4,12.7,48.3,13.1,52.3,13.5z M37.7,12c0.4-3,0.8-5.8,1.2-8.8
		c-3.3-0.1-6.4-0.3-9.4-0.4c-0.3,0-0.7,0.1-0.8,0.3c-1.7,2.3-3.4,4.7-5.3,7.3C28.4,11,33,11.4,37.7,12z M70,15.4c0-1.1,0-2.1,0-3.2
		c-1.7-0.2-3.4-0.4-5.2-0.7c0,1.2,0,2.2,0,3.3C66.5,15,68.1,15.2,70,15.4z M72.8,15.6c4.1,0.9,4.2,0.9,4.7-2.4
		c-1.6-0.2-3.1-0.4-4.7-0.6C72.8,13.8,72.8,14.7,72.8,15.6z"/>
</g>
</svg>
