<?xml version="1.0" encoding="utf-8"?>
<!-- Generator: Adobe Illustrator 22.1.0, SVG Export Plug-In . SVG Version: 6.00 Build 0)  -->
<svg version="1.1"
	 id="svg19052" inkscape:version="0.92.1 r15371" sodipodi:docname="ALLVAR.svg" xmlns:cc="http://creativecommons.org/ns#" xmlns:dc="http://purl.org/dc/elements/1.1/" xmlns:inkscape="http://www.inkscape.org/namespaces/inkscape" xmlns:rdf="http://www.w3.org/1999/02/22-rdf-syntax-ns#" xmlns:sodipodi="http://sodipodi.sourceforge.net/DTD/sodipodi-0.dtd" xmlns:svg="http://www.w3.org/2000/svg"
	 xmlns="http://www.w3.org/2000/svg" xmlns:xlink="http://www.w3.org/1999/xlink" x="0px" y="0px" viewBox="0 0 40 40"
	 style="enable-background:new 0 0 40 40;" xml:space="preserve">
<style type="text/css">
	.st0{fill:#B48B91;}
	.st1{fill:#FFFFFF;}
</style>
<sodipodi:namedview  bordercolor="#666666" borderopacity="1" gridtolerance="10" guidetolerance="10" id="namedview19054" inkscape:current-layer="g19060" inkscape:cx="479.09063" inkscape:cy="73.316223" inkscape:pageopacity="0" inkscape:pageshadow="2" inkscape:window-height="988" inkscape:window-maximized="1" inkscape:window-width="1680" inkscape:window-x="1272" inkscape:window-y="-8" inkscape:zoom="2.3787301" objecttolerance="10" pagecolor="#ffffff" showgrid="false">
	</sodipodi:namedview>
<rect class="st0" width="40" height="40"/>
<g>
	<path class="st1" d="M14.9,28.4c0-0.4,0-0.9,0-1.3c0-0.1-0.1-0.3-0.2-0.4c-2.8-2.1-4.1-4.9-3.8-8.4c0.3-4.4,3.9-8,8.3-8.4
		c4.9-0.5,9.4,3.1,10,8c0.6,4.8-2.5,9.3-7.3,10.3c-1.1,0.2-2.2,0.3-3.4,0.1c-0.3-0.1-0.5,0-0.7,0.2C17,29,16.2,29.5,15.4,30
		c-0.1,0.1-0.3,0.1-0.4,0.1c-0.1,0-0.1-0.2-0.1-0.4C14.9,29.3,14.9,28.9,14.9,28.4z M15.7,19.4c0.1,1.7,0.8,3,2.3,3.8
		c1.6,0.8,3.2,0.7,4.6-0.4c1.1-0.8,1.6-2,1.6-3.3C21.4,19.4,18.6,19.4,15.7,19.4z"/>
</g>
</svg>
