<?xml version="1.0" encoding="utf-8"?>
<!-- Generator: Adobe Illustrator 22.1.0, SVG Export Plug-In . SVG Version: 6.00 Build 0)  -->
<svg version="1.1" id="Слой_1" xmlns="http://www.w3.org/2000/svg" xmlns:xlink="http://www.w3.org/1999/xlink" x="0px" y="0px"
	 viewBox="0 0 47.6 44.6" style="enable-background:new 0 0 47.6 44.6;" xml:space="preserve">
<style type="text/css">
	.st0{fill:#C8C8C8;}
</style>
<g>
	<path class="st0" d="M47.6,35.7c0,0.7,0,1.3,0,2c-4.4-0.1-8.1-1.6-10.9-5.1c0,3.3,0,6.7,0,10c0.7,0,1.3,0,2,0c0,0.7,0,1.3,0,2
		c-2,0-3.9,0-5.9,0c0-0.6,0-1.3,0-2c0.7,0,1.3,0,2,0c0-3.4,0-6.7,0-10c0,0,0,0-0.1,0.1c-1.6,2.1-3.8,3.5-6.3,4.3
		c-1.8,0.6-3.7,0.8-5.6,0.7c-2.4-0.2-4.7-0.9-6.8-2.3c-1.1-0.7-2.1-1.6-2.9-2.7c0,0,0-0.1-0.1-0.1c0,0,0,0,0,0c0,3.3,0,6.7,0,10
		c0.7,0,1.3,0,2,0c0,0.7,0,1.3,0,2c-2,0-3.9,0-5.9,0c0-0.6,0-1.3,0-2c0.7,0,1.3,0,2,0c0-3.3,0-6.7,0-10C8.1,36.1,4.4,37.6,0,37.7
		c0-0.7,0-1.3,0-2c0.1,0,0.2,0,0.2,0C2.7,35.6,5,35,7,33.6c1.6-1.1,2.7-2.5,3.4-4.3c0.2-0.5,0.3-1.1,0.4-1.7c0-0.1,0-0.2-0.1-0.2
		c-0.7-0.5-1-1.4-0.7-2.3c0.3-0.8,1.1-1.4,2-1.3c0.8,0,1.6,0.6,1.8,1.4c0.2,0.8,0,1.7-0.7,2.1c-0.1,0.1-0.1,0.2-0.1,0.3
		c0.3,2.2,1.4,3.9,3,5.3c1.6,1.3,3.4,2.1,5.4,2.5c2.5,0.5,4.9,0.3,7.3-0.7c1.9-0.8,3.5-2,4.7-3.7c0.7-1,1.2-2.2,1.3-3.4
		c0-0.1,0-0.2-0.1-0.4c-0.7-0.5-1-1.5-0.7-2.3c0.3-0.8,1.2-1.4,2-1.3c0.9,0.1,1.6,0.8,1.8,1.7c0.1,0.8-0.1,1.4-0.8,1.9
		c-0.1,0.1-0.1,0.2-0.1,0.3c0.2,1.9,1.1,3.4,2.4,4.7c1.5,1.5,3.4,2.5,5.4,2.9c0.9,0.2,1.9,0.3,2.9,0.3
		C47.5,35.7,47.5,35.7,47.6,35.7z"/>
	<path class="st0" d="M38.3,28.8c0.1-0.1,0.2-0.2,0.2-0.2c0.4-0.5,0.8-1,0.9-1.6c0-0.1,0.1-0.1,0.2-0.1c0.3,0,0.6,0,1,0
		c0-8.3,0-16.5,0-24.8C29.4,2,18.2,2,6.9,2c0,8.3,0,16.5,0,24.8c0.4,0,0.7,0,1.1,0c0.2,0.8,0.6,1.4,1.2,2c-0.1,0-0.1,0-0.2,0
		c-1,0-2,0-3,0c-0.7,0-1.1-0.4-1.1-1.1c0-8.9,0-17.7,0-26.6C4.9,0.4,5.4,0,6,0c11.8,0,23.7,0,35.5,0c0.7,0,1.1,0.4,1.1,1.1
		c0,8.9,0,17.7,0,26.6c0,0.7-0.4,1.1-1.1,1.1C40.5,28.8,39.4,28.8,38.3,28.8z"/>
	<path class="st0" d="M38.6,23.2c0,0-0.1-0.1-0.1-0.1c-0.5-0.5-1-0.8-1.7-1c-0.1,0-0.2-0.1-0.2-0.2c0-4.9,0-9.8,0-14.7
		c0-0.4,0-0.7,0-1.1c-8.6,0-17.2,0-25.8,0c0,5.3,0,10.6,0,16c-0.8,0.2-1.4,0.6-2,1.2c0-0.1,0-0.1,0-0.2c0-6,0-12,0-18
		C8.9,4.4,9.3,4,10,4c9.2,0,18.4,0,27.6,0c0.6,0,1.1,0.4,1.1,1.1c0,6,0,12,0,18C38.7,23,38.7,23.1,38.6,23.2
		C38.6,23.1,38.6,23.1,38.6,23.2z"/>
	<path class="st0" d="M33.1,22.9c0,0-0.1,0-0.1,0.1c-0.5,0.5-0.8,1.1-1,1.7c0,0.1-0.1,0.1-0.2,0.1c-5.3,0-10.6,0-15.8,0
		c-0.1,0-0.1,0-0.2-0.1c-0.2-0.7-0.6-1.3-1.1-1.8c0,0,0,0,0-0.1C20.7,22.8,26.9,22.8,33.1,22.9C33,22.8,33,22.9,33.1,22.9z"/>
	<path class="st0" d="M14.5,28.8c0.1-0.2,0.3-0.3,0.4-0.5c0.3-0.4,0.6-0.9,0.7-1.4c0-0.1,0.1-0.2,0.2-0.2c4.8,0,9.5,0,14.3,0
		c0.5,0,1,0,1.5,0c0.1,0,0.1,0,0.2,0.1c0.2,0.7,0.6,1.3,1.1,1.8c0,0,0,0,0,0.1C26.9,28.8,20.7,28.8,14.5,28.8z"/>
</g>
</svg>
