<?xml version="1.0" encoding="utf-8"?>
<!-- Generator: Adobe Illustrator 22.1.0, SVG Export Plug-In . SVG Version: 6.00 Build 0)  -->
<svg version="1.1" id="Слой_1" xmlns="http://www.w3.org/2000/svg" xmlns:xlink="http://www.w3.org/1999/xlink" x="0px" y="0px"
	 viewBox="0 0 13.3 14.9" style="enable-background:new 0 0 13.3 14.9;" xml:space="preserve">
<style type="text/css">
	.st0{stroke:#FFFFFF;stroke-width:0.25;stroke-miterlimit:10;}
</style>
<g>
	<path class="st0" d="M6.5,14.9c-0.1,0-0.3-0.1-0.4-0.1c-0.7-0.3-1.2-0.8-1.2-1.6c-0.1-0.7,0.2-1.4,0.9-1.8c0.9-0.6,2.1-0.3,2.6,0.7
		c0.4,0.8,0.2,1.9-0.5,2.4c-0.2,0.2-0.5,0.3-0.8,0.3c0,0-0.1,0-0.1,0C6.8,14.9,6.6,14.9,6.5,14.9z"/>
	<path class="st0" d="M6.7,0C7.8,0,8.9,0.2,10,0.4c0.7,0.2,1.5,0.4,2.1,0.7c0.3,0.1,0.5,0.2,0.8,0.4c0.4,0.2,0.6,0.8,0.3,1.2
		C13,3.2,12.5,3.4,12,3.2c-0.5-0.2-1-0.4-1.4-0.6C9.7,2.2,8.8,2,7.9,1.9C7.3,1.9,6.6,1.9,6,1.9c-0.8,0-1.6,0.2-2.4,0.4
		C3.1,2.4,2.5,2.7,2,2.9C1.7,3,1.5,3.1,1.3,3.2c-0.4,0.2-0.9,0-1.2-0.3c-0.2-0.4-0.2-1,0.2-1.2c0.3-0.2,0.6-0.3,0.9-0.5
		C1.8,1,2.3,0.8,2.9,0.6c0.8-0.3,1.7-0.4,2.6-0.5C5.8,0.1,6.3,0,6.7,0z"/>
	<path class="st0" d="M6.6,3.7c1.1,0,2.3,0.2,3.3,0.6c0.4,0.2,0.8,0.3,1.2,0.5c0.4,0.2,0.6,0.8,0.4,1.2c-0.2,0.4-0.8,0.6-1.2,0.4
		C9.8,6.3,9.3,6,8.9,5.9C8.2,5.7,7.5,5.6,6.7,5.6c-0.7,0-1.4,0.1-2,0.3C4.1,6,3.6,6.3,3.1,6.5c-0.3,0.2-0.7,0.1-1-0.2
		C1.8,6,1.8,5.6,1.9,5.3C2,5,2.2,4.9,2.5,4.7c1-0.5,2-0.8,3-0.9C5.9,3.8,6.2,3.8,6.6,3.7z"/>
	<path class="st0" d="M6.7,9.3C6.1,9.3,5.5,9.5,5,9.7c-0.3,0.2-0.7,0.2-1,0C3.7,9.5,3.6,9.2,3.6,8.9c0-0.3,0.2-0.6,0.5-0.8
		C5,7.6,6,7.4,7,7.5c0.8,0,1.6,0.2,2.3,0.6c0.4,0.2,0.6,0.6,0.5,1.1C9.7,9.5,9.4,9.8,9,9.9c-0.2,0-0.4,0-0.5-0.1
		C7.9,9.5,7.3,9.3,6.7,9.3z"/>
</g>
</svg>
