<?xml version="1.0" encoding="utf-8"?>
<!-- Generator: Adobe Illustrator 22.1.0, SVG Export Plug-In . SVG Version: 6.00 Build 0)  -->
<svg version="1.1"
	 id="svg19052" inkscape:version="0.92.1 r15371" sodipodi:docname="ALLVAR.svg" xmlns:cc="http://creativecommons.org/ns#" xmlns:dc="http://purl.org/dc/elements/1.1/" xmlns:inkscape="http://www.inkscape.org/namespaces/inkscape" xmlns:rdf="http://www.w3.org/1999/02/22-rdf-syntax-ns#" xmlns:sodipodi="http://sodipodi.sourceforge.net/DTD/sodipodi-0.dtd" xmlns:svg="http://www.w3.org/2000/svg"
	 xmlns="http://www.w3.org/2000/svg" xmlns:xlink="http://www.w3.org/1999/xlink" x="0px" y="0px" viewBox="0 0 40 40"
	 style="enable-background:new 0 0 40 40;" xml:space="preserve">
<style type="text/css">
	.st0{fill:#B48B91;}
	.st1{fill:#FFFFFF;}
</style>
<sodipodi:namedview  bordercolor="#666666" borderopacity="1" gridtolerance="10" guidetolerance="10" id="namedview19054" inkscape:current-layer="g19060" inkscape:cx="479.09063" inkscape:cy="73.316223" inkscape:pageopacity="0" inkscape:pageshadow="2" inkscape:window-height="988" inkscape:window-maximized="1" inkscape:window-width="1680" inkscape:window-x="1272" inkscape:window-y="-8" inkscape:zoom="2.3787301" objecttolerance="10" pagecolor="#ffffff" showgrid="false">
	</sodipodi:namedview>
<rect class="st0" width="40" height="40"/>
<g>
	<path class="st1" d="M20,12.7c0.9,0,1.9,0,2.9,0.1c0.7,0,1.4,0,2.1,0.1c0.6,0,1.3,0.1,1.9,0.2c0.6,0.1,1,0.3,1.4,0.8
		c0.3,0.3,0.5,0.7,0.5,1.1c0.1,0.5,0.2,1.1,0.2,1.6c0.1,1.2,0.1,2.4,0.1,3.6c0,0.8,0,1.6-0.1,2.4c0,0.5-0.1,1-0.1,1.5
		c0,0.5-0.1,0.9-0.2,1.4c-0.3,0.9-0.9,1.5-1.8,1.7c-0.5,0.1-1,0.1-1.5,0.2c-0.4,0-0.8,0.1-1.3,0.1c-0.6,0-1.2,0-1.8,0.1
		c-0.8,0-1.6,0-2.5,0c-0.9,0-1.9,0-2.8,0c-0.8,0-1.5-0.1-2.3-0.1c-0.6,0-1.1-0.1-1.7-0.2c-0.5-0.1-1-0.3-1.3-0.7
		c-0.3-0.4-0.5-0.8-0.6-1.3c-0.1-0.5-0.2-1-0.2-1.6c-0.1-1.2-0.1-2.4-0.1-3.6c0-0.7,0-1.4,0-2c0-0.5,0-1,0.1-1.5
		c0-0.6,0.1-1.2,0.2-1.7c0.3-0.9,0.9-1.5,1.8-1.7c0.5-0.1,1-0.1,1.5-0.2c0.4,0,0.8-0.1,1.3-0.1c0.5,0,1,0,1.4-0.1
		C18.1,12.7,19.1,12.7,20,12.7z M18.2,23.2c1.8-1.1,3.7-2.1,5.5-3.2c-1.8-1.1-3.7-2.1-5.5-3.2C18.2,19,18.2,21.1,18.2,23.2z"/>
</g>
</svg>
