<?xml version="1.0" encoding="utf-8"?>
<!-- Generator: Adobe Illustrator 22.1.0, SVG Export Plug-In . SVG Version: 6.00 Build 0)  -->
<svg version="1.1"
	 id="svg19052" inkscape:version="0.92.1 r15371" sodipodi:docname="ALLVAR.svg" xmlns:cc="http://creativecommons.org/ns#" xmlns:dc="http://purl.org/dc/elements/1.1/" xmlns:inkscape="http://www.inkscape.org/namespaces/inkscape" xmlns:rdf="http://www.w3.org/1999/02/22-rdf-syntax-ns#" xmlns:sodipodi="http://sodipodi.sourceforge.net/DTD/sodipodi-0.dtd" xmlns:svg="http://www.w3.org/2000/svg"
	 xmlns="http://www.w3.org/2000/svg" xmlns:xlink="http://www.w3.org/1999/xlink" x="0px" y="0px" viewBox="0 0 14 14"
	 style="enable-background:new 0 0 14 14;" xml:space="preserve">
<style type="text/css">
	.st0{fill:#7A1F2E;}
	.st1{fill:#72222E;}
</style>
<sodipodi:namedview  bordercolor="#666666" borderopacity="1" gridtolerance="10" guidetolerance="10" id="namedview19054" inkscape:current-layer="g19060" inkscape:cx="479.09063" inkscape:cy="73.316223" inkscape:pageopacity="0" inkscape:pageshadow="2" inkscape:window-height="988" inkscape:window-maximized="1" inkscape:window-width="1680" inkscape:window-x="1272" inkscape:window-y="-8" inkscape:zoom="2.3787301" objecttolerance="10" pagecolor="#ffffff" showgrid="false">
	</sodipodi:namedview>
<path id="path36465" inkscape:connector-curvature="0" class="st0" d="M597-528.3c0.4,0,0.6,0.1,0.6,0.3c0,0.1,0,0.2-0.1,0.4l0,0
	L597-524c0,0.3-0.3,0.5-0.7,0.5h-6v3.1h5c0.3,0,0.4,0,0.5,0.1c0.1,0.1,0.1,0.3,0.1,0.5v3.5c0,0.3,0,0.4-0.1,0.5
	c-0.1,0.1-0.3,0.1-0.5,0.1h-5v3.6h6.4c0.3,0,0.5,0,0.5,0.1c0.1,0.1,0.1,0.2,0.1,0.5v3.6c0,0.3,0,0.5-0.1,0.5
	c-0.1,0.1-0.2,0.1-0.5,0.1"/>
<g>
	<path class="st1" d="M0,13C0,9.4,0,5.9,0,2.3c0,0,0,0,0,0c0.1-0.6,0.6-1,1.2-1c0.5,0,1,0,1.5,0c0.1,0,0.2,0,0.3,0
		c0-0.1,0-0.1,0-0.2c0-0.2,0-0.5,0-0.7c0-0.3,0.4-0.5,0.6-0.4c0.2,0.1,0.2,0.2,0.2,0.4c0,0.3,0,0.6,0,0.8c0.9,0,1.8,0,2.6,0
		c0-0.3,0-0.6,0-0.9C6.6,0.2,6.8,0,7,0c0.2,0,0.4,0.2,0.4,0.4c0,0.1,0,0.2,0,0.3c0,0.2,0,0.4,0,0.5c0.9,0,1.8,0,2.6,0
		c0-0.3,0-0.6,0-0.8c0-0.2,0.1-0.3,0.3-0.4c0.3-0.1,0.6,0.1,0.6,0.4c0,0.3,0,0.6,0,0.9c0.1,0,0.1,0,0.2,0c0.6,0,1.2,0,1.7,0
		c0.5,0,0.8,0.2,1,0.6C13.9,2.1,14,2.2,14,2.3c0,3.6,0,7.1,0,10.7c0,0,0,0,0,0c-0.1,0.5-0.4,0.8-0.9,0.9c0,0,0,0-0.1,0
		c-4,0-8,0-12,0c0,0-0.1,0-0.1,0c-0.3-0.1-0.5-0.2-0.7-0.5C0.1,13.3,0.1,13.2,0,13z M3.1,2.2c-0.6,0-1.2,0-1.8,0
		C1,2.2,0.9,2.3,0.9,2.5c0,3.4,0,6.8,0,10.2c0,0.2,0.1,0.3,0.4,0.3c3.9,0,7.7,0,11.6,0c0.3,0,0.4-0.1,0.4-0.4c0-3.4,0-6.8,0-10.2
		c0-0.3-0.1-0.4-0.4-0.4c-0.6,0-1.1,0-1.7,0c0,0-0.1,0-0.1,0c0,0.3,0,0.6,0,0.9c0,0.2-0.2,0.4-0.4,0.4c-0.2,0-0.4-0.2-0.4-0.4
		c0-0.1,0-0.2,0-0.3c0-0.2,0-0.4,0-0.5c-0.9,0-1.8,0-2.6,0c0,0,0,0,0,0c0,0.3,0,0.5,0,0.8c0,0.2-0.1,0.3-0.3,0.4
		C6.9,3.6,6.6,3.4,6.6,3c0-0.3,0-0.6,0-0.9c-0.9,0-1.8,0-2.6,0c0,0,0,0,0,0c0,0.3,0,0.5,0,0.8c0,0.3-0.2,0.5-0.4,0.5
		C3.2,3.5,3.1,3.3,3.1,3C3.1,2.7,3.1,2.5,3.1,2.2z"/>
	<path class="st1" d="M3.1,6.5c0-0.4,0-0.9,0-1.3c0.6,0,1.1,0,1.7,0c0,0.4,0,0.8,0,1.3C4.2,6.5,3.7,6.5,3.1,6.5z"/>
	<path class="st1" d="M7.9,5.3c0,0.4,0,0.9,0,1.3c-0.6,0-1.1,0-1.7,0c0-0.4,0-0.8,0-1.3C6.7,5.3,7.3,5.3,7.9,5.3z"/>
	<path class="st1" d="M10.9,5.3c0,0.4,0,0.9,0,1.3c-0.6,0-1.1,0-1.7,0c0-0.4,0-0.8,0-1.3C9.8,5.3,10.3,5.3,10.9,5.3z"/>
	<path class="st1" d="M3.1,7.4c0.6,0,1.1,0,1.7,0c0,0.4,0,0.9,0,1.3c-0.6,0-1.1,0-1.7,0C3.1,8.3,3.1,7.9,3.1,7.4z"/>
	<path class="st1" d="M6.1,8.7c0-0.4,0-0.9,0-1.3c0.6,0,1.1,0,1.7,0c0,0.4,0,0.8,0,1.3C7.3,8.7,6.7,8.7,6.1,8.7z"/>
	<path class="st1" d="M10.9,8.7c-0.6,0-1.1,0-1.7,0c0-0.4,0-0.9,0-1.3c0.6,0,1.1,0,1.7,0C10.9,7.9,10.9,8.3,10.9,8.7z"/>
	<path class="st1" d="M3.1,10.9c0-0.4,0-0.9,0-1.3c0.6,0,1.1,0,1.7,0c0,0.4,0,0.8,0,1.3C4.2,10.9,3.7,10.9,3.1,10.9z"/>
	<path class="st1" d="M7.9,9.6c0,0.4,0,0.9,0,1.3c-0.6,0-1.1,0-1.7,0c0-0.4,0-0.8,0-1.3C6.7,9.6,7.3,9.6,7.9,9.6z"/>
	<path class="st1" d="M9.2,10.9c0-0.4,0-0.9,0-1.3c0.6,0,1.1,0,1.7,0c0,0.4,0,0.9,0,1.3C10.4,10.9,9.8,10.9,9.2,10.9z"/>
</g>
</svg>
