<?xml version="1.0" encoding="utf-8"?>
<!-- Generator: Adobe Illustrator 22.1.0, SVG Export Plug-In . SVG Version: 6.00 Build 0)  -->
<svg version="1.1" id="Слой_1" xmlns="http://www.w3.org/2000/svg" xmlns:xlink="http://www.w3.org/1999/xlink" x="0px" y="0px"
	 viewBox="0 0 50 50" style="enable-background:new 0 0 50 50;" xml:space="preserve">
<style type="text/css">
	.st0{fill:#C8C8C8;}
</style>
<g>
	<path class="st0" d="M2.2,43.8c0-11.6,0-23.2,0-34.7c0-0.1,0.1-0.1,0.1-0.2c0.5-2,1.9-3.1,3.9-3.1c1.8,0,3.6,0,5.5,0
		c0.2,0,0.3,0,0.5,0c0-1,0-1.9,0-2.8c0-0.8,0.5-1.5,1.4-1.5c0.7,0,1.4,0.6,1.4,1.5c0,0.6,0,1.2,0,1.8c0,0.4,0,0.6,0,1
		c2.9,0,5.7,0,8.6,0c0-1,0-1.9,0-2.8C23.7,2,24.3,1.5,25,1.5c0.7,0,1.4,0.6,1.4,1.4c0,0.2,0,0.4,0,0.5c0,0.7,0,1.5,0,2.3
		c2.9,0,5.7,0,8.6,0c0-1,0-1.9,0-2.8c0.1-0.7,0.7-1.4,1.5-1.4c0.8,0,1.4,0.6,1.4,1.5c0,0.7,0,1.6,0,2.3c0,0.2,0,0.4,0,0.5
		c2,0,3.9,0,5.8,0c2.6,0,4.1,1.6,4.1,4.1c0,11,0,22.1,0,33.1c0,0.2,0,0.4,0,0.5c-0.1,1.6-1.2,3-2.7,3.5c-0.2,0.1-0.4,0.1-0.5,0.2
		c-13,0-26,0-39,0c-0.1,0-0.2-0.1-0.4-0.1c-0.9-0.2-1.7-0.7-2.2-1.5C2.6,45,2.5,44.3,2.2,43.8z M37.9,8.6c0,1,0,1.9,0,2.8
		c0,0.8-0.6,1.5-1.5,1.5s-1.4-0.6-1.4-1.5s0-1.6,0-2.4c0-0.2,0-0.3,0-0.4c-2.9,0-5.7,0-8.6,0c0,0.5,0,0.9,0,1.5c0,0.5,0,0.9,0,1.4
		c0,1.1-1.1,1.8-2.1,1.3c-0.5-0.3-0.7-0.7-0.7-1.3c0-0.9,0-1.8,0-2.7c-2.9,0-5.7,0-8.6,0c0,0.9,0,1.8,0,2.8c0,0.8-0.6,1.5-1.5,1.5
		c-0.8,0-1.4-0.6-1.4-1.5c0-0.5,0-1.1,0-1.6c0-0.4,0-0.8,0-1.2c-2,0-3.9,0-5.8,0c-1,0-1.3,0.3-1.3,1.3c0,11,0,22.1,0,33
		c0,1,0.3,1.3,1.3,1.3c12.4,0,24.9,0,37.3,0c1,0,1.3-0.3,1.3-1.3c0-10.9,0-21.8,0-32.6c0-1.4-0.3-1.7-1.6-1.6
		C41.5,8.6,39.7,8.6,37.9,8.6z"/>
	<path class="st0" d="M12.3,18.6c1.9,0,3.7,0,5.7,0c0,1.4,0,2.8,0,4.2c-1.8,0-3.7,0-5.7,0C12.3,21.4,12.3,20,12.3,18.6z"/>
	<path class="st0" d="M22.2,22.8c0-1.5,0-2.8,0-4.2c1.9,0,3.7,0,5.7,0c0,1.4,0,2.7,0,4.2C26,22.8,24.1,22.8,22.2,22.8z"/>
	<path class="st0" d="M37.8,22.8c-1.9,0-3.7,0-5.7,0c0-1.4,0-2.8,0-4.2c1.8,0,3.7,0,5.7,0C37.8,20,37.8,21.3,37.8,22.8z"/>
	<path class="st0" d="M17.9,25.7c0,1.4,0,2.8,0,4.2c-1.9,0-3.7,0-5.7,0c0-1.4,0-2.7,0-4.2C14.1,25.7,16,25.7,17.9,25.7z"/>
	<path class="st0" d="M27.9,29.9c-1.9,0-3.7,0-5.7,0c0-1.4,0-2.8,0-4.2c1.9,0,3.7,0,5.7,0C27.9,27.1,27.9,28.4,27.9,29.9z"/>
	<path class="st0" d="M37.8,25.7c0,1.4,0,2.8,0,4.2c-1.9,0-3.7,0-5.7,0c0-1.4,0-2.7,0-4.2C34.1,25.7,35.9,25.7,37.8,25.7z"/>
	<path class="st0" d="M17.9,32.8c0,1.4,0,2.8,0,4.2c-1.9,0-3.7,0-5.7,0c0-1.4,0-2.7,0-4.2C14.1,32.8,16,32.8,17.9,32.8z"/>
	<path class="st0" d="M22.2,37c0-1.4,0-2.8,0-4.2c1.9,0,3.7,0,5.7,0c0,1.4,0,2.7,0,4.2C26,37,24.1,37,22.2,37z"/>
	<path class="st0" d="M37.8,32.8c0,1.4,0,2.8,0,4.2c-1.9,0-3.7,0-5.7,0c0-1.4,0-2.7,0-4.2C34.1,32.8,36,32.8,37.8,32.8z"/>
</g>
</svg>
