<?xml version="1.0" encoding="utf-8"?>
<!-- Generator: Adobe Illustrator 22.1.0, SVG Export Plug-In . SVG Version: 6.00 Build 0)  -->
<svg version="1.1" id="Слой_1" xmlns="http://www.w3.org/2000/svg" xmlns:xlink="http://www.w3.org/1999/xlink" x="0px" y="0px"
	 viewBox="0 0 42 25.2" style="enable-background:new 0 0 42 25.2;" xml:space="preserve">
<style type="text/css">
	.st0{fill:#72222E;}
</style>
<g>
	<path class="st0" d="M0,8.2c0.5-0.9,0.9-1.9,1.8-2.5c1.9-1.3,4.9-1,6.3,1.8c3.6,0,7.2,0,10.8,0c0.2,0,0.5-0.1,0.7-0.3
		c1-1.1,2-2,3.4-2.6c0.2-0.1,0.4-0.3,0.4-0.5c0.1-0.4,0-0.9,0-1.3c-1.4,0-2.8,0-4.2,0c-2.7,0.1-5.3,0.3-8,0.4
		c-0.9,0-1.9,0.1-2.8,0.1c-0.4,0-1-0.1-1.3-0.3c-0.3-0.3-0.6-1-0.4-1.2C7,1.4,7.6,0.9,8,0.9c0.9-0.1,1.9,0,2.9,0.1
		c3.9,0.2,7.9,0.4,11.8,0.6c0.2,0,0.4,0,0.7,0c0.1-0.7,0-1.5,1-1.5c0.9,0,0.9,0.8,0.9,1.3c1.7,0,3.4,0,5.1,0
		c2.7-0.1,5.4-0.3,8.2-0.4c0.7,0,1.3-0.1,2-0.1c0.9,0,1.5,0.6,1.5,1.4c0,0.7-0.7,1.3-1.6,1.2c-1.2,0-2.4-0.1-3.6-0.1
		C34,3.1,31.3,3,28.5,2.9c-1.1-0.1-2.1-0.1-3.2-0.1c0,0.5,0,0.9,0,1.3c1.6,0.2,3.3,0.3,4.9,0.6c3.7,0.7,7,2.2,9.5,5
		c1.9,2.1,2.7,4.4,2.1,7.2c-0.4,2.1-1.8,3.4-3.7,4c-1.7,0.5-3.4,0.9-5.2,1c-3,0.2-6,0.2-9,0.1c-1.3,0-2.6-0.2-3.9-0.6
		c-2-0.6-3-2-3.2-4c-0.1-1-0.1-2-0.2-3.1c-0.9-0.2-1.9-0.5-2.9-0.7c-1.9-0.5-3.7-1-5.6-1.4c-0.2-0.1-0.6,0-0.7,0.1
		c-2.2,2.5-6.4,1.6-7.3-1.6c0,0-0.1-0.1-0.1-0.1C0,9.6,0,8.9,0,8.2z M28.6,6.1c-0.8,0-1.4-0.1-2-0.1c-2.4-0.2-4.3,0.6-5.7,2.5
		C20.5,9,20,9.3,19.3,9.3c-4.2,0-8.4,0-12.5,0c-0.3,0-0.6,0-0.9,0C6,9.5,6.2,9.6,6.4,9.6c3.7,0.9,7.3,1.9,11,2.8
		c0.8,0.2,1.2,0.6,1.1,1.4c0,0.8,0,1.6,0,2.5c0,2,1,3.2,3,3.5c1.1,0.2,2.2,0.3,3.3,0.3c2.9,0,5.8,0,8.7-0.2c1.4-0.1,2.8-0.4,4.1-0.8
		c1.4-0.5,2.4-1.5,2.6-3.1c-3.1,0.9-6.3,0.8-9.4,0.8c-2.1,0-3.7-1.4-3.9-3.5c-0.1-1-0.1-2,0-3C27.1,8.8,27.3,7.3,28.6,6.1z
		 M32.3,15.1c0,0,0-0.1,0-0.1c1,0,2.1,0.1,3.1,0c1.3-0.1,2.6-0.4,3.9-0.6c0.6-0.1,0.9-0.5,0.5-1.1c-0.4-0.7-0.8-1.5-1.3-2.2
		c-1.6-2-3.7-3.2-6.1-3.9C31.1,6.7,29.3,7,29,8.9c-0.2,1.4-0.3,2.9-0.3,4.3c0,0.9,0.6,1.6,1.6,1.7C30.9,15,31.6,15.1,32.3,15.1z
		 M6,7.5c-1.3-1-2.6-0.9-3.5-0.1c-0.9,0.8-1,2.3-0.3,3.2c0.8,1,2,1.3,3.3,0.6c-0.7-0.2-1.3-0.3-1.8-0.5c-0.9-0.3-1.3-1-1.2-1.9
		c0.1-0.8,0.8-1.3,1.7-1.4C4.7,7.5,5.2,7.5,6,7.5z"/>
	<path class="st0" d="M25.6,25.2c-2.9,0-5.9,0-8.8,0c-0.2,0-0.5,0.1-0.6,0c-0.3-0.2-0.8-0.6-0.8-0.8c0-0.3,0.5-0.6,0.8-0.8
		c0.1-0.1,0.4,0,0.6,0c5.5,0,11,0,16.5,0c1.6,0,3.3-0.2,4.9-0.5c0.5-0.1,1-0.6,1.5-0.8c0.3-0.1,0.8-0.3,1-0.1
		c0.2,0.1,0.5,0.7,0.4,0.9c-0.2,0.5-0.5,1.1-1,1.2c-1.3,0.4-2.7,0.9-4.1,1C32.6,25.2,29.1,25.1,25.6,25.2
		C25.6,25.1,25.6,25.1,25.6,25.2z"/>
</g>
</svg>
