<?xml version="1.0" encoding="utf-8"?>
<!-- Generator: Adobe Illustrator 22.1.0, SVG Export Plug-In . SVG Version: 6.00 Build 0)  -->
<svg version="1.1" id="Слой_1" xmlns="http://www.w3.org/2000/svg" xmlns:xlink="http://www.w3.org/1999/xlink" x="0px" y="0px"
	 viewBox="0 0 50 66.6" style="enable-background:new 0 0 50 66.6;" xml:space="preserve">
<style type="text/css">
	.st0{fill:#72222E;stroke:#72222E;stroke-width:0.75;stroke-miterlimit:10;}
</style>
<g>
	<path class="st0" d="M4.5,26.2c0.2-2.9,0.7-5.8,1.7-8.5c1.6-4.4,4.3-8,8.5-10.3c3.3-1.9,6.9-2.8,10.7-2.8c2.7,0,5.2-0.7,7.6-1.8
		C34.6,2,36.1,1,37.6,0l0.6,0c0.7,0.3,0.9,0.8,0.8,1.4C39,1.7,39,2,39,2.2c-0.2,1.9-0.7,3.7-1.3,5.5c-0.1,0.3-0.1,0.4,0.1,0.7
		c0.8,1.1,1.5,2.3,2.3,3.4c2.4,3.3,5.2,6.4,8.3,9c1.4,1.2,2,3,1.2,4.9c-1,2.2-2.5,4.1-4.6,5.4c-1.8,1.1-3.6,1.2-5.4,0
		c-2-1.3-4-2.6-5.9-3.9c-0.1-0.1-0.4-0.1-0.5-0.1c-1.4,0.6-2.8,0.7-4.2,0.5c-0.3,0-0.7-0.1-1.1-0.2c0.1,0.7,0.1,1.4,0.3,2
		c0.3,1.8,1.3,3.3,2.4,4.7c1.5,1.9,3.3,3.6,5.1,5.2c2.3,2.2,4.2,4.7,5.7,7.5c1.9,3.6,2.9,7.4,2.5,11.5c-0.3,3.1-1.6,5.8-3.8,8
		c-0.1,0.1-0.2,0.2-0.3,0.2c-0.1,0-0.3,0-0.4,0c-0.1,0-0.1,0-0.2,0c-0.1-0.1-0.3-0.2-0.4-0.3c-0.1,0-0.1-0.1-0.2-0.1c0,0,0,0,0-0.1
		c0,0-0.1-0.1-0.1-0.1c0-0.2,0-0.3,0-0.4c0-0.3,0-0.5,0-0.8c0,0,0,0,0,0c0-0.1,0.1-0.1,0.1-0.2c0.1-0.1,0.2-0.2,0.3-0.3c0,0,0,0,0,0
		c1.2-1.3,2-2.7,2.4-4.4c0.7-2.7,0.5-5.3-0.3-7.9c-1.3-4.4-3.7-8-6.9-11.1c-1.6-1.6-3.2-3.2-4.8-4.8c-2.4-2.6-3.8-5.7-3.7-9.4
		c0-0.1-0.1-0.2-0.2-0.3c-2.3-1.3-3.6-3.3-4.4-5.8c-0.4-1.4-0.5-2.8,0.1-4.2c0.3-0.7,0.9-0.9,1.5-0.7c0.6,0.3,0.8,0.9,0.5,1.5
		c-0.3,0.6-0.3,1.3-0.2,1.9c0.5,2.8,2.2,5.3,5.4,6.1c1.5,0.4,2.9,0.4,4.3-0.4c0.6-0.4,1.1-0.3,1.6,0.1c2.2,1.4,4.3,2.8,6.5,4.3
		c1,0.7,2,0.6,3,0c1.1-0.6,2-1.5,2.7-2.6c0.5-0.7,0.9-1.4,1.2-2.1c0.3-0.7,0.1-1.3-0.5-1.8c-2.4-2.1-4.6-4.3-6.6-6.7
		c-1.9-2.2-3.6-4.5-5.1-7c-0.2-0.4-0.3-0.8-0.1-1.2c0.1-0.4,0.3-0.9,0.4-1.3c0.3-1,0.5-2,0.8-3.1c-0.7,0.4-1.3,0.7-1.9,1
		c-2.6,1.3-5.3,2.2-8.2,2.3c-1.3,0.1-2.6,0.1-3.8,0.3c-2.8,0.4-5.5,1.3-7.9,2.9c-3.3,2.2-5.4,5.4-6.6,9.1c-1,3-1.4,6.1-1.4,9.2
		c0,2.7,0.2,5.5,0.6,8.2c0.6,4.4,1.5,8.7,2.9,12.9c0.3,0.9,0.6,1.8,0.9,2.7c0.3,0.8-0.3,1.6-1.1,1.5c-0.6-0.1-0.9-0.4-1-0.9
		c-1.8-4.9-3-9.9-3.7-15.1C4.7,33.8,4.3,30,4.5,26.2z"/>
	<path class="st0" d="M23.9,0c-0.8,0.1-1.5,0.1-2.3,0.2c-4.5,0.4-8.4,2.1-11.8,5.1c-4.4,3.8-7.2,8.5-8.6,14C0.3,22.5,0,25.8,0,29.2
		C-0.1,34.7,0.8,40,2.1,45.3c0.1,0.2,0.1,0.5,0.2,0.7c0.2,0.6,0.8,0.9,1.3,0.8c0.6-0.2,0.9-0.7,0.8-1.4c-0.4-2-0.9-4-1.3-6
		c-0.8-4.3-1.1-8.6-0.8-12.9c0.2-4,1-7.8,2.8-11.4c2.1-4.5,5.3-8,9.5-10.5c2.1-1.2,4.4-1.9,6.8-2.1c1.4-0.1,2.8-0.2,4.2-0.3
		c0.9-0.1,1.5-0.9,1-1.6C26.5,0.4,26.2,0.2,26,0C25.3,0,24.6,0,23.9,0z"/>
</g>
</svg>
