<?xml version="1.0" encoding="utf-8"?>
<!-- Generator: Adobe Illustrator 23.0.1, SVG Export Plug-In . SVG Version: 6.00 Build 0)  -->
<svg version="1.1"
	 id="svg19052" inkscape:version="0.92.1 r15371" sodipodi:docname="ALLVAR.svg" xmlns:cc="http://creativecommons.org/ns#" xmlns:dc="http://purl.org/dc/elements/1.1/" xmlns:inkscape="http://www.inkscape.org/namespaces/inkscape" xmlns:rdf="http://www.w3.org/1999/02/22-rdf-syntax-ns#" xmlns:sodipodi="http://sodipodi.sourceforge.net/DTD/sodipodi-0.dtd" xmlns:svg="http://www.w3.org/2000/svg"
	 xmlns="http://www.w3.org/2000/svg" xmlns:xlink="http://www.w3.org/1999/xlink" x="0px" y="0px" viewBox="0 0 16.7 15.5"
	 style="enable-background:new 0 0 16.7 15.5;" xml:space="preserve">
<style type="text/css">
	.st0{fill:#7A1F2E;}
</style>
<sodipodi:namedview  bordercolor="#666666" borderopacity="1" gridtolerance="10" guidetolerance="10" id="namedview19054" inkscape:current-layer="g19060" inkscape:cx="479.09063" inkscape:cy="73.316223" inkscape:pageopacity="0" inkscape:pageshadow="2" inkscape:window-height="988" inkscape:window-maximized="1" inkscape:window-width="1680" inkscape:window-x="1272" inkscape:window-y="-8" inkscape:zoom="2.3787301" objecttolerance="10" pagecolor="#ffffff" showgrid="false">
	</sodipodi:namedview>
<path id="path36465" inkscape:connector-curvature="0" class="st0" d="M435.8-772.3c0.4,0,0.6,0.1,0.6,0.3c0,0.1,0,0.2-0.1,0.4l0,0
	l-0.5,3.6c0,0.3-0.3,0.5-0.7,0.5h-6v3.1h5c0.3,0,0.4,0,0.5,0.1s0.1,0.3,0.1,0.5v3.5c0,0.3,0,0.4-0.1,0.5s-0.3,0.1-0.5,0.1h-5v3.6
	h6.4c0.3,0,0.5,0,0.5,0.1c0.1,0.1,0.1,0.2,0.1,0.5v3.6c0,0.3,0,0.5-0.1,0.5c-0.1,0.1-0.2,0.1-0.5,0.1"/>
<path d="M15.1,15.5c-1.9,0-3.7,0-5.5,0c0-2,0-4.1,0-6.1c-0.8,0-1.6,0-2.5,0c0,2,0,4.1,0,6.1c-1.8,0-3.7,0-5.5,0c0-2.3,0-4.7,0-7
	c0,0,0,0,0,0C1.3,8.7,1.1,9,0.9,9.2C0.5,8.9,0.3,8.6,0,8.4C2.8,5.6,5.6,2.8,8.3,0c2.8,2.8,5.6,5.6,8.3,8.4c-0.3,0.3-0.5,0.5-0.8,0.8
	c-0.2-0.2-0.5-0.5-0.7-0.8C15.1,10.8,15.1,13.2,15.1,15.5z M5.9,14.3c0-2,0-4.1,0-6.1c1.6,0,3.3,0,4.9,0c0,2,0,4.1,0,6.1
	c1,0,2,0,3.1,0c0,0,0-0.1,0-0.1c0-2.3,0-4.6,0-6.8c0-0.1-0.1-0.2-0.1-0.3C12,5.3,10.2,3.6,8.5,1.8c0,0-0.1-0.1-0.1-0.1
	c0,0-0.1,0.1-0.1,0.1C6.5,3.6,4.7,5.3,2.9,7.1C2.9,7.2,2.8,7.3,2.8,7.4c0,2.2,0,4.5,0,6.7c0,0.1,0,0.1,0,0.2
	C3.9,14.3,4.9,14.3,5.9,14.3z"/>
</svg>
