<?xml version="1.0" encoding="utf-8"?>
<!-- Generator: Adobe Illustrator 22.1.0, SVG Export Plug-In . SVG Version: 6.00 Build 0)  -->
<svg version="1.1"
	 id="svg19052" inkscape:version="0.92.1 r15371" sodipodi:docname="ALLVAR.svg" xmlns:cc="http://creativecommons.org/ns#" xmlns:dc="http://purl.org/dc/elements/1.1/" xmlns:inkscape="http://www.inkscape.org/namespaces/inkscape" xmlns:rdf="http://www.w3.org/1999/02/22-rdf-syntax-ns#" xmlns:sodipodi="http://sodipodi.sourceforge.net/DTD/sodipodi-0.dtd" xmlns:svg="http://www.w3.org/2000/svg"
	 xmlns="http://www.w3.org/2000/svg" xmlns:xlink="http://www.w3.org/1999/xlink" x="0px" y="0px" viewBox="0 0 120 88.3"
	 style="enable-background:new 0 0 120 88.3;" xml:space="preserve">
<style type="text/css">
	.st0{fill:#FFFFFF;}
</style>
<sodipodi:namedview  bordercolor="#666666" borderopacity="1" gridtolerance="10" guidetolerance="10" id="namedview19054" inkscape:current-layer="g19060" inkscape:cx="479.09063" inkscape:cy="73.316223" inkscape:pageopacity="0" inkscape:pageshadow="2" inkscape:window-height="988" inkscape:window-maximized="1" inkscape:window-width="1680" inkscape:window-x="1272" inkscape:window-y="-8" inkscape:zoom="2.3787301" objecttolerance="10" pagecolor="#ffffff" showgrid="false">
	</sodipodi:namedview>
<path id="path33178" inkscape:connector-curvature="0" class="st0" d="M102.6,53.5c1.5-2.2,4.1-5.3,5.7-5.3c0.9,0,1.1,0.5,1.1,1
	c0.2,4.9,0.3,17.2-0.9,26.1c-0.8,6-0.4,12.5,0.2,12.5c4.3,0,10.8,0.2,10.8-5.1c0-7.1-1.5-15.9-1.3-23.7c0.2-9.5,0.4-16.1,1.6-25.4
	c0.3-2,0.4-3.9-0.6-5.4c-1.8-2.6-7.2-2.3-10.3-2.3c-0.3,3.1,3.2,13.2-1.9,17.7c-3.4,3-5.8,6.5-5.8,0.5c0-2.1,0.5-2.8,0.8-4.7
	c0.4-2.4-7,2.7-7.1,2.7c-2.6,1.1-2.5,2.8-2.2,4.6c0.9,4.6-0.7,7.8-0.7,12c0,2.9,5.7,5.4,9.2,4.6c0.1-2.3-0.1-3.8,0-6
	C101.4,55.3,101.5,55.2,102.6,53.5L102.6,53.5z M11.4,44.8c0.1-3.2,0.7-5.3,1.1-8.6c0.2-1.7,0.4-3.6,0.4-5.4c0-3-0.2-4.9-4.1-5
	c-2.9-0.1-6.6,1-8.8,3.1c0.5,1.1,1.6,4.7,1.9,7.5C3,48.1,1.4,59.8,1.2,71.4C1,76.4,0,92,10,86.8c2-1,3.9-2.3,5-4.6
	c-4.9-2.7-3.5-17-3.2-21.8c0.1-2.1,2.9-1.6,5.5,0.1c4.6,3.1,3.4,4.3,3.1,8.5c-0.4,6-3.2,18.6,5.1,19c3.5,0.1,7-1.1,6.5-4.8
	c-0.2-1.5-0.7-1.3-1.4-3.1c-2-4.9-0.9-12-0.9-17.2c0.2-2.4-1.2-4.1-3.5-5.2c-4.1-2.1-6.8-1.5-11.1-1.8c-2-0.1-3.4-0.7-2.7-3.2
	c0.9-3.2,10.5-3,12.7-4.2c1.3-1.4,0.9-3.8,1.6-6.8c0.9-3.1,3.5-6.1,4.4-11c0.5-3.1-7.5-8.1-9.1-1.5c-0.7,4.8-1.8,9.6-3,14.5
	C19.2,45,11.3,51.4,11.4,44.8L11.4,44.8z M42.2,71.3c0-2.6-0.4-6.3-0.2-8.7c0.3-3.7,2.6-7.3,6.8-7.2c2.7,0.1-2.1,9.4,3.5,7.8
	c0.7-0.2,4.1-2.1,5.4-3.3c0.9-0.8,0.9-1.2,0.4-2.2c-0.3-0.6-1.2-3.9-1.1-5.8c0.1-2,2.4-7.3-0.5-8.5c-2.7-0.9-4.4-2.6-6-3.6
	c-1.9-0.6-1.1,5.3-1.1,9.3c0,1.7-3.1,3.8-5.3,4.4C38.8,54.9,43.9,33,45,31.4c3.4-6.3-6.9-5.8-10.5-5.1c-0.7,3.8-0.1,7.2,0.4,10.6
	c1.6,10-1,29.6-1,42.4c0,1.3-0.6,3.7-0.4,5.6c0.2,2.2,2.6,3.8,4.9,3.3c2.5-0.5,6.5-4.5,5.2-7.7C42.5,78.2,42.2,74.1,42.2,71.3
	L42.2,71.3z M64.8,64.8c3.7-1.6,4.2,0.2,4,2.6c-0.2,3-1.1,5.8-1.2,8.9c-0.2,4.6,0.4,9.7,3.7,11.5c3.5,1,8.2-0.5,9.6-3.5
	c-0.3-1.5-3-9.4-3.1-11.4c-0.6-7.2,1-10.1,4.7-8.9c7.9,2.7,10.8,11.8,10,18.5c-0.3,2.4-0.4,5.1,1.5,5.2c1.7,0,7.3-0.5,9.9-2.4
	c1.5-1.1,1.3-2.8,1-4.3c-1.6-11-9.7-16.7-20.5-20.2c-4.8-1.6-8.7-3.4-3.8-5.7c2.8-1.5,3.6-3.7,3.4-5.6c-0.6-5.6-5.6-1.2-5.6-3.5
	c0-1.1,3.4-2.4,6.4-3.1c4.6-0.9,13.3-4.9,16.9-9.7c7.4-9.9-19.1-25.1-24.5-25.1c0,8.4,1.2,9.9,9.1,14.2c4.2,2.2,5.9,4.7,5.8,7.3
	c-0.2,5.2-6.7,9.6-12.3,10.3c-1.7,0.2-2.7-0.2-1.4-1.8c9-11-15.2-13.7-8.7-2.4C67,40.5,58.5,34.2,58,29.5c-1-7.5,8.1-7.9,12.9-11.5
	c2.6-2,3.9-5.5,4.6-8.7c0.6-2.4,0.9-4.7,0.7-7.6c-0.1-1.8-1.3-2.7-2.4,0.4c-0.9,2.6-1.5,3.3-3.8,6.4c-3.5,4.8-9.8,6.7-13.3,9.2
	c-8.1,5.8-10,13.8-0.9,21.4c3.2,2.7,7.2,3.6,10.1,4.2c2.1,0.4,4.2,0.5,4.4,2.8c0.2,2.6-3.2,4.4-4.9,5.2c-2.7,1.2-3.6,4.5,0.1,4.9
	c7.4,0.9,0.7,3.5-2.5,4.8c-7.8,3.3-14.7,9.1-16.7,16.7c-1.8,7,4,12.3,11,8.7c0.9-0.5,2.1-0.9,1.9-1.5c-0.6-1.9-1.6-3.4-2-6.6
	C56.8,72.6,59.9,66.9,64.8,64.8"/>
</svg>
