<?xml version="1.0" encoding="utf-8"?>
<!-- Generator: Adobe Illustrator 22.1.0, SVG Export Plug-In . SVG Version: 6.00 Build 0)  -->
<svg version="1.1"
	 id="svg19052" inkscape:version="0.92.1 r15371" sodipodi:docname="ALLVAR.svg" xmlns:cc="http://creativecommons.org/ns#" xmlns:dc="http://purl.org/dc/elements/1.1/" xmlns:inkscape="http://www.inkscape.org/namespaces/inkscape" xmlns:rdf="http://www.w3.org/1999/02/22-rdf-syntax-ns#" xmlns:sodipodi="http://sodipodi.sourceforge.net/DTD/sodipodi-0.dtd" xmlns:svg="http://www.w3.org/2000/svg"
	 xmlns="http://www.w3.org/2000/svg" xmlns:xlink="http://www.w3.org/1999/xlink" x="0px" y="0px" viewBox="0 0 40 40"
	 style="enable-background:new 0 0 40 40;" xml:space="preserve">
<style type="text/css">
	.st0{fill:#B48B91;}
	.st1{fill:#FFFFFF;}
</style>
<sodipodi:namedview  bordercolor="#666666" borderopacity="1" gridtolerance="10" guidetolerance="10" id="namedview19054" inkscape:current-layer="g19060" inkscape:cx="479.09063" inkscape:cy="73.316223" inkscape:pageopacity="0" inkscape:pageshadow="2" inkscape:window-height="988" inkscape:window-maximized="1" inkscape:window-width="1680" inkscape:window-x="1272" inkscape:window-y="-8" inkscape:zoom="2.3787301" objecttolerance="10" pagecolor="#ffffff" showgrid="false">
	</sodipodi:namedview>
<rect class="st0" width="40" height="40"/>
<g>
	<path class="st1" d="M17.7,25.1c-0.3-0.1-0.7-0.2-1-0.3c-0.9-0.3-1.8-0.7-2.6-1.2c-0.6-0.4-0.9-1.2-0.8-1.9
		c0.2-0.8,0.8-1.3,1.6-1.4c0.4,0,0.8,0.1,1.1,0.3c0.9,0.5,1.8,0.9,2.8,1.1c0.8,0.1,1.5,0.2,2.3,0.1c0.9-0.1,1.7-0.3,2.4-0.7
		c0.3-0.1,0.5-0.3,0.8-0.4c1.1-0.7,2.5,0,2.7,1.3c0.1,0.8-0.2,1.4-0.8,1.8c-1.1,0.7-2.2,1.1-3.4,1.4c0,0-0.1,0-0.1,0
		c0.1,0.1,0.1,0.1,0.2,0.1c1.1,1.1,2.2,2.2,3.3,3.3c0.5,0.5,0.7,1.1,0.5,1.8c-0.2,0.7-0.7,1.1-1.4,1.3c-0.6,0.1-1.1,0-1.6-0.5
		c-1.1-1.1-2.2-2.2-3.3-3.3c0,0-0.1-0.1-0.1-0.1c0,0,0,0.1-0.1,0.1C19,28.8,18,29.9,16.9,31c-0.4,0.4-0.8,0.6-1.4,0.6
		c-1,0-1.9-1-1.7-2c0.1-0.4,0.2-0.8,0.5-1.1c1.1-1.1,2.2-2.2,3.2-3.2C17.6,25.1,17.7,25.1,17.7,25.1z"/>
	<path class="st1" d="M14.1,13.9c0-3.4,2.7-6.1,6.1-6.1c3.4,0,6.1,2.7,6.1,6.1c0,3.4-2.8,6.1-6.1,6.1C16.8,20,14.1,17.3,14.1,13.9z
		 M22.7,13.9c0-1.4-1.1-2.5-2.5-2.5c-1.4,0-2.5,1.1-2.5,2.5c0,1.4,1.1,2.5,2.5,2.5C21.6,16.5,22.7,15.3,22.7,13.9z"/>
</g>
</svg>
