<?xml version="1.0" encoding="utf-8"?>
<!-- Generator: Adobe Illustrator 22.1.0, SVG Export Plug-In . SVG Version: 6.00 Build 0)  -->
<svg version="1.1"
	 id="svg19052" inkscape:version="0.92.1 r15371" sodipodi:docname="ALLVAR.svg" xmlns:cc="http://creativecommons.org/ns#" xmlns:dc="http://purl.org/dc/elements/1.1/" xmlns:inkscape="http://www.inkscape.org/namespaces/inkscape" xmlns:rdf="http://www.w3.org/1999/02/22-rdf-syntax-ns#" xmlns:sodipodi="http://sodipodi.sourceforge.net/DTD/sodipodi-0.dtd" xmlns:svg="http://www.w3.org/2000/svg"
	 xmlns="http://www.w3.org/2000/svg" xmlns:xlink="http://www.w3.org/1999/xlink" x="0px" y="0px" viewBox="0 0 17 25.4"
	 style="enable-background:new 0 0 17 25.4;" xml:space="preserve">
<style type="text/css">
	.st0{fill:#7A1F2E;}
</style>
<sodipodi:namedview  bordercolor="#666666" borderopacity="1" gridtolerance="10" guidetolerance="10" id="namedview19054" inkscape:current-layer="g19060" inkscape:cx="479.09063" inkscape:cy="73.316223" inkscape:pageopacity="0" inkscape:pageshadow="2" inkscape:window-height="988" inkscape:window-maximized="1" inkscape:window-width="1680" inkscape:window-x="1272" inkscape:window-y="-8" inkscape:zoom="2.3787301" objecttolerance="10" pagecolor="#ffffff" showgrid="false">
	</sodipodi:namedview>
<path id="path36465" inkscape:connector-curvature="0" class="st0" d="M435-771.6c0.4,0,0.6,0.1,0.6,0.3c0,0.1,0,0.2-0.1,0.4l0,0
	l-0.5,3.6c0,0.3-0.3,0.5-0.7,0.5h-6v3.1h5c0.3,0,0.4,0,0.5,0.1c0.1,0.1,0.1,0.3,0.1,0.5v3.5c0,0.3,0,0.4-0.1,0.5
	c-0.1,0.1-0.3,0.1-0.5,0.1h-5v3.6h6.4c0.3,0,0.5,0,0.5,0.1c0.1,0.1,0.1,0.2,0.1,0.5v3.6c0,0.3,0,0.5-0.1,0.5
	c-0.1,0.1-0.2,0.1-0.5,0.1"/>
<g>
	<path d="M8.5,23.2c-0.4-0.5-0.7-1-1-1.5C6,19.4,4.5,17,3.3,14.6c-0.6-1.2-1.2-2.4-1.5-3.7C1.3,9.2,1.5,7.6,2.2,6.2
		C3.3,4,5,2.8,7.4,2.3c3.7-0.7,7.4,2,8.1,5.7c0.2,1.2,0,2.3-0.4,3.4c-0.6,1.8-1.5,3.6-2.5,5.3c-1.2,2.1-2.5,4.2-3.9,6.3
		C8.6,23,8.6,23.1,8.5,23.2z M8.5,21.6c0-0.1,0.1-0.1,0.1-0.1c1.2-1.8,2.4-3.7,3.5-5.6c0.8-1.4,1.5-2.9,2.1-4.4
		c0.4-1.1,0.6-2.2,0.4-3.3c-0.6-2.6-2.2-4.3-4.8-4.8C7.2,2.7,5.1,3.6,3.5,5.7C2.4,7.3,2,9,2.7,10.8c0.3,0.9,0.7,1.8,1.1,2.7
		C5,16,6.4,18.4,7.9,20.7C8.1,21,8.3,21.3,8.5,21.6z"/>
</g>
</svg>
