<?xml version="1.0" encoding="utf-8"?>
<!-- Generator: Adobe Illustrator 22.1.0, SVG Export Plug-In . SVG Version: 6.00 Build 0)  -->
<svg version="1.1"
	 id="svg19052" inkscape:version="0.92.1 r15371" sodipodi:docname="ALLVAR.svg" xmlns:cc="http://creativecommons.org/ns#" xmlns:dc="http://purl.org/dc/elements/1.1/" xmlns:inkscape="http://www.inkscape.org/namespaces/inkscape" xmlns:rdf="http://www.w3.org/1999/02/22-rdf-syntax-ns#" xmlns:sodipodi="http://sodipodi.sourceforge.net/DTD/sodipodi-0.dtd" xmlns:svg="http://www.w3.org/2000/svg"
	 xmlns="http://www.w3.org/2000/svg" xmlns:xlink="http://www.w3.org/1999/xlink" x="0px" y="0px" viewBox="0 0 40 40"
	 style="enable-background:new 0 0 40 40;" xml:space="preserve">
<style type="text/css">
	.st0{fill:#B48B91;}
	.st1{fill:#FFFFFF;}
</style>
<sodipodi:namedview  bordercolor="#666666" borderopacity="1" gridtolerance="10" guidetolerance="10" id="namedview19054" inkscape:current-layer="g19060" inkscape:cx="479.09063" inkscape:cy="73.316223" inkscape:pageopacity="0" inkscape:pageshadow="2" inkscape:window-height="988" inkscape:window-maximized="1" inkscape:window-width="1680" inkscape:window-x="1272" inkscape:window-y="-8" inkscape:zoom="2.3787301" objecttolerance="10" pagecolor="#ffffff" showgrid="false">
	</sodipodi:namedview>
<rect class="st0" width="40" height="40"/>
<g>
	<path class="st1" d="M15.2,30.8c-0.3-1.2-0.5-2.5-0.3-3.8c0.3-1.7,0.7-3.4,1.1-5.1c0.1-0.4,0.2-0.8,0.3-1.1
		c0.3-0.8,0.3-1.5,0.1-2.4c-0.3-1.2-0.2-2.3,0.7-3.3c0.4-0.4,0.8-0.8,1.4-0.8c1.4-0.1,2.3,0.9,1.9,2.5c-0.3,1.2-0.7,2.4-1,3.5
		c-0.4,1.4,0.5,2.5,1.9,2.5c1.2,0,2.2-0.5,2.9-1.4c1.5-2,1.9-4.2,1.1-6.5c-0.7-2-2.3-3-4.3-3.3c-2.2-0.3-4.2,0.2-5.8,1.8
		c-1.7,1.8-1.9,4.6-0.5,6.7c0.1,0.2,0.1,0.4,0.1,0.6c-0.1,0.4-0.2,0.8-0.3,1.2c-0.1,0.5-0.3,0.4-0.6,0.3c-0.7-0.4-1.2-0.9-1.6-1.5
		c-1.9-2.9-1.2-7,1.6-9.3c1.5-1.2,3.2-1.8,5-2c0.2,0,0.3-0.1,0.5-0.1c0.5,0,1.1,0,1.6,0c0.2,0,0.3,0.1,0.5,0.1
		c1.8,0.2,3.4,0.8,4.8,2.1c2.4,2.2,3,4.9,2.1,7.9c-0.8,2.9-2.6,5-5.7,5.5C21.4,25,20.1,24.9,19,24c-0.2-0.1-0.3-0.3-0.5-0.6
		C17.9,26.1,17,28.6,15.2,30.8C15.3,30.8,15.3,30.8,15.2,30.8z"/>
</g>
</svg>
