<?xml version="1.0" encoding="utf-8"?>
<!-- Generator: Adobe Illustrator 22.1.0, SVG Export Plug-In . SVG Version: 6.00 Build 0)  -->
<svg version="1.1"
	 id="svg19052" inkscape:version="0.92.1 r15371" sodipodi:docname="ALLVAR.svg" xmlns:cc="http://creativecommons.org/ns#" xmlns:dc="http://purl.org/dc/elements/1.1/" xmlns:inkscape="http://www.inkscape.org/namespaces/inkscape" xmlns:rdf="http://www.w3.org/1999/02/22-rdf-syntax-ns#" xmlns:sodipodi="http://sodipodi.sourceforge.net/DTD/sodipodi-0.dtd" xmlns:svg="http://www.w3.org/2000/svg"
	 xmlns="http://www.w3.org/2000/svg" xmlns:xlink="http://www.w3.org/1999/xlink" x="0px" y="0px" viewBox="0 0 17 25.4"
	 style="enable-background:new 0 0 17 25.4;" xml:space="preserve">
<style type="text/css">
	.st0{fill:#7A1F2E;}
	.st1{fill:#72222E;}
</style>
<sodipodi:namedview  bordercolor="#666666" borderopacity="1" gridtolerance="10" guidetolerance="10" id="namedview19054" inkscape:current-layer="g19060" inkscape:cx="479.09063" inkscape:cy="73.316223" inkscape:pageopacity="0" inkscape:pageshadow="2" inkscape:window-height="988" inkscape:window-maximized="1" inkscape:window-width="1680" inkscape:window-x="1272" inkscape:window-y="-8" inkscape:zoom="2.3787301" objecttolerance="10" pagecolor="#ffffff" showgrid="false">
	</sodipodi:namedview>
<path id="path36465" inkscape:connector-curvature="0" class="st0" d="M435-771.6c0.4,0,0.6,0.1,0.6,0.3c0,0.1,0,0.2-0.1,0.4l0,0
	l-0.5,3.6c0,0.3-0.3,0.5-0.7,0.5h-6v3.1h5c0.3,0,0.4,0,0.5,0.1c0.1,0.1,0.1,0.3,0.1,0.5v3.5c0,0.3,0,0.4-0.1,0.5
	c-0.1,0.1-0.3,0.1-0.5,0.1h-5v3.6h6.4c0.3,0,0.5,0,0.5,0.1c0.1,0.1,0.1,0.2,0.1,0.5v3.6c0,0.3,0,0.5-0.1,0.5
	c-0.1,0.1-0.2,0.1-0.5,0.1"/>
<g>
	<path class="st1" d="M8.5,25.4c-0.4-0.6-0.8-1.2-1.2-1.8C5.4,20.8,3.7,18,2.2,15c-0.7-1.5-1.4-3-1.9-4.5c-0.6-2-0.3-3.9,0.6-5.7
		c1.3-2.6,3.4-4.1,6.2-4.6c4.5-0.8,9,2.4,9.8,6.9c0.2,1.4,0,2.8-0.4,4.1c-0.8,2.2-1.9,4.3-3,6.4c-1.5,2.6-3.1,5.1-4.8,7.6
		C8.6,25.2,8.6,25.3,8.5,25.4z M8.5,23.5c0.1-0.1,0.1-0.1,0.1-0.2c1.5-2.2,2.9-4.5,4.2-6.8c1-1.7,1.9-3.5,2.6-5.4
		c0.5-1.3,0.8-2.6,0.4-4C15.1,4,13.2,1.9,10,1.3c-3.1-0.6-5.7,0.4-7.6,3c-1.4,1.9-1.8,4-1,6.2c0.4,1.1,0.8,2.2,1.3,3.3
		c1.4,3,3.2,5.9,5,8.7C8,22.8,8.3,23.1,8.5,23.5z"/>
</g>
</svg>
