<?xml version="1.0" encoding="utf-8"?>
<!-- Generator: Adobe Illustrator 22.1.0, SVG Export Plug-In . SVG Version: 6.00 Build 0)  -->
<svg version="1.1" id="Слой_1" xmlns="http://www.w3.org/2000/svg" xmlns:xlink="http://www.w3.org/1999/xlink" x="0px" y="0px"
	 viewBox="0 0 108.9 108.9" style="enable-background:new 0 0 108.9 108.9;" xml:space="preserve">
<style type="text/css">
	.st0{fill:#72222E;}
</style>
<g>
	<path class="st0" d="M0,57.1c0-1.7,0-3.5,0-5.2c0.2-1.8,0.4-3.5,0.6-5.3c1.1-7.6,3.7-14.6,7.8-21c2.7-4.3,5.9-8.1,9.7-11.5
		c3.5-3.2,7.3-5.8,11.5-8c4.9-2.5,10.1-4.3,15.5-5.2c2-0.3,4.1-0.6,6.1-0.9c2.3,0,4.5,0,6.8,0c1.3,0.2,2.6,0.4,3.9,0.5
		c4.6,0.6,9,1.8,13.2,3.5c6.8,2.8,12.7,6.8,17.9,12c5.2,5.2,9.1,11.2,11.9,18c2.1,5.1,3.4,10.5,3.8,16c0.7,9-0.7,17.6-4.3,25.9
		c-3,6.8-7.1,12.8-12.5,18c-6.8,6.5-14.7,10.9-23.8,13.2c-7,1.8-14,2.2-21.1,1.2c-8.9-1.3-17-4.5-24.3-9.7
		c-6.4-4.6-11.5-10.3-15.5-17.2C4.1,76,1.9,70,0.8,63.7C0.5,61.5,0.3,59.3,0,57.1z M26.8,54c0.3,0,0.6,0.1,0.8,0.1
		c7.9,0,15.8,0,23.7,0c0.8,0,0.9-0.3,0.9-1c0-5.1,0-10.3,0-15.4c0-0.8-0.2-1.1-1.1-1.1c-6.5-0.2-12.9-1.1-19.1-2.8
		c-0.8-0.2-1.7-0.4-2.6-0.7C27.7,39.9,26.7,46.8,26.8,54z M79.4,33.1c-1.6,0.4-3,0.9-4.5,1.2c-5.7,1.3-11.4,2.1-17.3,2.3
		c-0.8,0-1,0.2-1,1c0,5.2,0,10.4,0,15.6c0,0.7,0.2,0.9,0.9,0.9c7.8,0,15.7,0,23.5,0c0.8,0,0.9-0.2,0.9-1c-0.3-3.2-0.3-6.5-0.7-9.7
		C80.8,40,80,36.6,79.4,33.1z M95.3,25.8c-0.2,0.1-0.4,0.2-0.5,0.3c-3.3,2.2-6.8,3.9-10.5,5.3c-0.6,0.3-0.8,0.5-0.6,1.2
		c1.2,4.5,2,9.1,2.4,13.8c0.2,2.3,0.3,4.6,0.4,6.9c0,0.5,0.2,0.8,0.8,0.8c5.5,0,11,0,16.5,0c0.6,0,0.8-0.2,0.8-0.8
		c-0.2-6.5-1.6-12.8-4.2-18.8C98.9,31.4,97.3,28.5,95.3,25.8z M13.6,25.8c-5.9,8.5-9,17.9-9.1,28.2C4.7,54,4.8,54,4.9,54
		c5.6,0,11.1,0,16.7,0c0.5,0,0.6-0.2,0.7-0.7c0-0.7,0.1-1.4,0.1-2.1c0.1-6.4,1.1-12.7,2.7-18.9c0.1-0.5,0-0.8-0.5-1
		c-2.6-1.2-5.2-2.4-7.7-3.6C15.8,27.2,14.7,26.5,13.6,25.8z M30.7,80.2c0,0.2,0,0.3,0.1,0.4c1.9,5.5,4.4,10.8,8.1,15.3
		c2.7,3.3,5.8,6,9.8,7.5c1.1,0.4,2.2,0.7,3.5,1c0-9.3,0-18.4,0-27.5C47.2,76.6,34.5,78.6,30.7,80.2z M52.2,4.6
		c-0.7,0.1-1.3,0.2-1.9,0.4c-5.1,1.4-8.8,4.7-12,8.8c-2.7,3.5-4.7,7.4-6.4,11.5c-0.4,1.1-0.8,2.3-1.2,3.4C34,30.3,49,32.6,52.2,32
		C52.2,23,52.2,13.9,52.2,4.6z M78,28.9c0-0.2,0-0.3-0.1-0.4c-1.6-4.6-3.6-9.1-6.4-13.1C69,11.8,66,8.6,62,6.4
		c-1.6-0.8-3.3-1.5-5.2-1.7c0,9.2,0,18.3,0,27.4C64,31.9,71,30.9,78,28.9z M56.7,104.3c0.9-0.2,1.6-0.4,2.3-0.6
		c4.9-1.6,8.4-4.9,11.5-8.8c2.3-3,4.1-6.4,5.6-9.9c0.7-1.6,1.3-3.3,1.9-5c-1.9-0.5-3.6-1-5.3-1.4c-5-1-10-1.6-15.1-1.9
		c-0.8,0-1,0.1-1,0.9c0,8.5,0,17,0,25.5C56.7,103.6,56.7,103.9,56.7,104.3z M52.2,58.5c-8.5,0-16.9,0-25.4,0
		c0.3,5.9,1.1,11.7,2.6,17.4c1.6-0.4,3.1-0.9,4.6-1.2c5.7-1.3,11.5-2.1,17.3-2.3c0.7,0,0.9-0.3,0.9-1c0-4,0-8.1,0-12.1
		C52.3,59.1,52.2,58.9,52.2,58.5z M81.7,58.5c-8.3,0-16.6,0-25,0c0,0.2-0.1,0.3-0.1,0.4c0,4.3,0,8.5,0,12.8c0,0.5,0.3,0.7,0.7,0.7
		c1.1,0,2.2,0.1,3.3,0.2c4.8,0.3,9.4,1,14.1,2.1c1.5,0.3,2.9,0.8,4.4,1.1C80.5,72.1,82.1,60.9,81.7,58.5z M104.3,58.5
		c-6.1,0-12,0-18,0c0,0.4-0.1,0.7-0.1,1C86,65.3,85.1,71,83.6,76.6c-0.1,0.5,0,0.7,0.5,0.9c3.8,1.5,7.4,3.2,10.8,5.4
		c0.2,0.1,0.4,0.1,0.6,0.2C100.5,75.7,103.5,67.6,104.3,58.5z M4.7,58.5c0.8,9.1,3.8,17.2,8.9,24.6c0.2-0.1,0.3-0.1,0.4-0.1
		c3.4-2.2,7-4,10.7-5.4c0.6-0.2,0.5-0.5,0.4-1c-1.4-5.6-2.3-11.3-2.6-17.1c0-0.3-0.1-0.7-0.1-1C16.4,58.5,10.6,58.5,4.7,58.5z
		 M92.7,22.3c-6.1-7.1-13.4-12.2-22.2-15.1c2.7,2.9,5.1,6,6.9,9.5c1.8,3.5,3.4,7.1,5,10.7C85.9,26.1,89.4,24.5,92.7,22.3z
		 M82.5,81.5c-1.7,3.6-3.3,7.2-5.1,10.7c-1.8,3.5-4.2,6.6-6.9,9.5c8.8-2.9,16.1-8,22.2-15.1C89.3,84.5,85.9,82.8,82.5,81.5z
		 M16.2,22.3c3.3,2.1,6.7,3.8,10,5c1.7-3.6,3.3-7.1,5-10.6c1.8-3.5,4.2-6.5,6.8-9.4C29.5,10.3,22.3,15.3,16.2,22.3z M38.1,101.6
		c-5.5-5.7-9-12.6-11.6-20.1c-3.6,1.4-7,3-10.2,5.1C22.3,93.6,29.5,98.7,38.1,101.6z"/>
</g>
</svg>
