<?xml version="1.0" encoding="utf-8"?>
<!-- Generator: Adobe Illustrator 22.1.0, SVG Export Plug-In . SVG Version: 6.00 Build 0)  -->
<svg version="1.1"
	 id="svg19052" inkscape:version="0.92.1 r15371" sodipodi:docname="ALLVAR.svg" xmlns:cc="http://creativecommons.org/ns#" xmlns:dc="http://purl.org/dc/elements/1.1/" xmlns:inkscape="http://www.inkscape.org/namespaces/inkscape" xmlns:rdf="http://www.w3.org/1999/02/22-rdf-syntax-ns#" xmlns:sodipodi="http://sodipodi.sourceforge.net/DTD/sodipodi-0.dtd" xmlns:svg="http://www.w3.org/2000/svg"
	 xmlns="http://www.w3.org/2000/svg" xmlns:xlink="http://www.w3.org/1999/xlink" x="0px" y="0px" viewBox="0 0 40 40"
	 style="enable-background:new 0 0 40 40;" xml:space="preserve">
<style type="text/css">
	.st0{fill:#B48B91;}
	.st1{fill:#FFFFFF;}
</style>
<sodipodi:namedview  bordercolor="#666666" borderopacity="1" gridtolerance="10" guidetolerance="10" id="namedview19054" inkscape:current-layer="g19060" inkscape:cx="479.09063" inkscape:cy="73.316223" inkscape:pageopacity="0" inkscape:pageshadow="2" inkscape:window-height="988" inkscape:window-maximized="1" inkscape:window-width="1680" inkscape:window-x="1272" inkscape:window-y="-8" inkscape:zoom="2.3787301" objecttolerance="10" pagecolor="#ffffff" showgrid="false">
	</sodipodi:namedview>
<rect class="st0" width="40" height="40"/>
<g>
	<path class="st1" d="M8.6,15.4c1.2,0,2.4,0,3.6,0c0,0,0.1,0,0.1,0c1.2-0.8,2.6-1.3,4-1.7c0.6-0.1,1.2-0.2,1.8-0.3
		c0.9-0.1,1.7-0.1,2.6-0.1c1.2,0,2.3,0.2,3.5,0.5c1.2,0.3,2.3,0.8,3.3,1.5c0.1,0,0.1,0,0.2,0c1.2,0,2.4,0,3.7,0c0,0,0,0,0,0
		c0,0,0,0,0,0c-0.1,0.1-0.2,0.2-0.3,0.3c-0.4,0.5-0.7,1.1-0.8,1.8c0,0.1,0,0.2,0,0.3c0.5,0.7,0.8,1.5,1,2.4c0.2,1.6-0.1,3-1.1,4.2
		c-0.8,1.1-1.9,1.8-3.2,2.1c-0.5,0.1-1.1,0.2-1.7,0.1c-1.2-0.1-2.2-0.5-3.1-1.2c-0.3-0.2-0.6-0.5-0.8-0.8c0,0,0,0,0-0.1
		c-0.4,0.6-0.8,1.2-1.3,1.7c-0.4-0.6-0.8-1.2-1.3-1.8c-0.1,0.1-0.2,0.2-0.3,0.3c-0.8,0.8-1.7,1.4-2.8,1.6c-1.8,0.4-3.4,0.1-4.8-1.1
		c-1-0.8-1.7-1.9-2-3.2c-0.3-1.4-0.1-2.8,0.6-4.1c0.1-0.2,0.2-0.3,0.3-0.5c0-0.1,0-0.1,0-0.2c-0.1-0.5-0.3-0.9-0.6-1.4
		C9,16,8.8,15.7,8.6,15.4C8.7,15.5,8.6,15.5,8.6,15.4C8.6,15.4,8.6,15.4,8.6,15.4z M21.1,21c0,2.5,2,4.6,4.6,4.6
		c2.5,0,4.6-2,4.5-4.5c0-2.5-2-4.5-4.5-4.6C23.2,16.4,21.1,18.5,21.1,21z M18.9,21c0-2.5-2-4.5-4.5-4.6c-2.6,0-4.6,2-4.6,4.6
		c0,2.5,2,4.5,4.5,4.5C16.9,25.6,18.9,23.5,18.9,21z M25.4,15.4c-2.1-0.9-4.2-1.2-6.4-1c-1.6,0.1-3.1,0.4-4.6,1
		c1.5,0,2.8,0.6,3.9,1.6c1.1,1,1.6,2.3,1.7,3.8c0.1-1.5,0.7-2.7,1.7-3.7C22.7,16,24,15.4,25.4,15.4z"/>
	<path class="st1" d="M25.7,23.7c-1.5,0-2.8-1.2-2.8-2.7c0-1.5,1.2-2.7,2.8-2.7c1.5,0,2.8,1.3,2.7,2.8
		C28.4,22.5,27.2,23.7,25.7,23.7z M25.7,22.9c1.1,0,1.9-0.8,1.9-1.9c0-1-0.9-1.9-1.9-1.9c-1.1,0-1.9,0.9-1.9,1.9
		C23.8,22,24.6,22.9,25.7,22.9z"/>
	<path class="st1" d="M17,21c0,1.5-1.2,2.7-2.7,2.8c-1.5,0-2.8-1.2-2.8-2.7c0-1.5,1.2-2.8,2.7-2.8C15.8,18.2,17,19.5,17,21z
		 M12.4,21c0,1,0.9,1.9,1.9,1.9c1,0,1.9-0.8,1.9-1.9c0-1-0.8-1.9-1.8-1.9C13.2,19.1,12.4,19.9,12.4,21z"/>
	<path class="st1" d="M25.5,21.9c-0.5,0-0.9-0.4-0.9-0.9c0-0.5,0.4-0.9,0.9-0.9c0.5,0,0.9,0.4,0.9,0.9C26.4,21.5,26,21.9,25.5,21.9z
		"/>
	<path class="st1" d="M14.1,20.1c0.5,0,0.9,0.4,0.9,0.9c0,0.5-0.4,0.9-0.9,0.9c-0.5,0-0.9-0.4-0.9-1C13.2,20.5,13.6,20.1,14.1,20.1z
		"/>
</g>
</svg>
