<?xml version="1.0" encoding="utf-8"?>
<!-- Generator: Adobe Illustrator 22.1.0, SVG Export Plug-In . SVG Version: 6.00 Build 0)  -->
<svg version="1.1"
	 id="svg19052" inkscape:version="0.92.1 r15371" sodipodi:docname="ALLVAR.svg" xmlns:cc="http://creativecommons.org/ns#" xmlns:dc="http://purl.org/dc/elements/1.1/" xmlns:inkscape="http://www.inkscape.org/namespaces/inkscape" xmlns:rdf="http://www.w3.org/1999/02/22-rdf-syntax-ns#" xmlns:sodipodi="http://sodipodi.sourceforge.net/DTD/sodipodi-0.dtd" xmlns:svg="http://www.w3.org/2000/svg"
	 xmlns="http://www.w3.org/2000/svg" xmlns:xlink="http://www.w3.org/1999/xlink" x="0px" y="0px" viewBox="0 0 40 40"
	 style="enable-background:new 0 0 40 40;" xml:space="preserve">
<style type="text/css">
	.st0{fill:#B48B91;}
	.st1{fill:#FFFFFF;}
</style>
<sodipodi:namedview  bordercolor="#666666" borderopacity="1" gridtolerance="10" guidetolerance="10" id="namedview19054" inkscape:current-layer="g19060" inkscape:cx="479.09063" inkscape:cy="73.316223" inkscape:pageopacity="0" inkscape:pageshadow="2" inkscape:window-height="988" inkscape:window-maximized="1" inkscape:window-width="1680" inkscape:window-x="1272" inkscape:window-y="-8" inkscape:zoom="2.3787301" objecttolerance="10" pagecolor="#ffffff" showgrid="false">
	</sodipodi:namedview>
<rect class="st0" width="40" height="40"/>
<g>
	<path class="st1" d="M10,26.2c2.2,0.2,4.2-0.4,5.9-1.7c-1.8-0.2-3.1-1.1-3.8-2.9c0.6,0.1,1.2,0.1,1.8-0.1c-2-0.6-3.1-1.9-3.2-4
		c0.3,0.1,0.6,0.2,0.9,0.3c0.3,0.1,0.6,0.1,0.9,0.1c-0.8-0.6-1.4-1.5-1.7-2.5c-0.2-1-0.1-2,0.4-3c2.2,2.6,5,4,8.4,4.3
		c0-0.3,0-0.5-0.1-0.7c-0.1-0.6,0.1-1.3,0.3-1.9c0.4-0.8,0.9-1.5,1.7-1.9c0.7-0.4,1.5-0.6,2.3-0.5c1,0.1,1.9,0.5,2.7,1.2
		c0,0,0.2,0.1,0.2,0.1c0.8-0.2,1.6-0.5,2.4-0.9c0,0,0,0,0.1,0c-0.2,0.5-0.4,0.9-0.7,1.3c-0.3,0.4-0.6,0.7-1,0.9
		c0.8-0.1,1.5-0.3,2.3-0.6c-0.5,0.7-1,1.3-1.7,1.8c0,0,0,0,0,0c-0.3,0.1-0.3,0.4-0.3,0.6c0,1.4-0.2,2.8-0.7,4.1
		c-0.5,1.5-1.3,2.8-2.3,3.9c-1,1.1-2.1,2-3.4,2.6c-0.9,0.4-1.8,0.7-2.8,0.9c-0.9,0.2-1.9,0.3-2.9,0.2c-1,0-2-0.2-2.9-0.5
		C11.9,27.3,10.9,26.9,10,26.2C10,26.3,10,26.3,10,26.2z"/>
</g>
</svg>
