<?xml version="1.0" encoding="utf-8"?>
<!-- Generator: Adobe Illustrator 22.1.0, SVG Export Plug-In . SVG Version: 6.00 Build 0)  -->
<svg version="1.1" id="Слой_1" xmlns="http://www.w3.org/2000/svg" xmlns:xlink="http://www.w3.org/1999/xlink" x="0px" y="0px"
	 viewBox="0 0 69.1 43" style="enable-background:new 0 0 69.1 43;" xml:space="preserve">
<style type="text/css">
	.st0{fill:#72222E;}
</style>
<g>
	<path class="st0" d="M45.7,0c0.2,0,0.4,0.1,0.5,0.1c0.5,0,0.9,0.2,1.1,0.8c0.6,1.5,1.2,3,1.7,4.5c1.3,3.8,2.6,7.6,4,11.3
		c0.2,0.5,0.2,0.5,0.7,0.4c2.8-0.5,5.6-0.1,8.1,1.2c4,2,6.4,5.3,7.1,9.8c0.6,4-0.4,7.5-3.1,10.5c-1.9,2.2-4.4,3.7-7.3,4.2
		c-5,0.8-9.4-0.6-12.6-4.6c-2.3-2.8-3.1-6.1-2.7-9.6c0.5-4.2,2.5-7.4,6.1-9.7c0.4-0.2,0.7-0.5,1.1-0.7c0.1-0.1,0.2-0.3,0.2-0.4
		c-0.4-1.2-0.9-2.4-1.3-3.6c0,0,0,0-0.1-0.1c-0.1,0.1-0.3,0.2-0.4,0.4c-3.9,3.8-7.8,7.5-11.7,11.3c-1.7,1.6-3.3,3.2-5,4.9
		c-0.1,0.1-0.4,0.2-0.6,0.2c-1.6,0-3.1,0-4.7,0c-0.1,0-0.3,0-0.5,0c-0.1,0.6-0.2,1.3-0.4,1.9c-1.3,5.2-4.6,8.5-9.8,9.9
		c-7.8,1.5-13.4-2.9-15.4-8.9c-0.2-0.7-0.3-1.5-0.4-2.3C0,31.4,0,31.2,0,31.1c0-0.8,0-1.6,0-2.4c0-0.1,0.1-0.2,0.1-0.3
		c0.2-2.2,0.9-4.2,2.3-6c3.5-4.5,8-6.3,13.7-5.2c1,0.2,1.1,0.2,1.5-0.8c1.2-2.6,2.4-5.2,3.6-7.8c0.1-0.1,0.1-0.4,0-0.5
		c-0.4-1-0.8-2.1-1.1-3.1c-0.1-0.3-0.2-0.3-0.5-0.3c-0.9,0-1.9,0-2.8,0c-0.4,0-0.8-0.1-1.1-0.2c-0.6-0.2-0.9-0.7-0.8-1.3
		c0.1-0.7,0.4-1,1-1.1c0.2,0,0.4,0,0.7,0c2.2,0,4.3,0,6.5,0c1.5,0,3,0,4.5,0.1c0.7,0,0.9,0.4,1,1c0.1,0.8-0.2,1.3-1,1.5
		c-0.1,0-0.3,0.1-0.5,0.1c-1.1,0-2.2,0.1-3.3,0.1c-0.3,0-0.5,0.1-0.9,0.1c0.4,0.9,0.8,1.8,1.1,2.7c0.1,0.3,0.2,0.4,0.5,0.4
		c7.4,0,14.8,0,22.2,0c0.1,0,0.3,0,0.4,0c-0.1-0.2-0.1-0.4-0.2-0.5c-0.4-1.3-0.9-2.6-1.3-3.8c-0.2-0.6-0.2-0.6-0.9-0.7
		c-0.1,0-0.2,0-0.3,0c-1.2,0-2.4,0-3.6-0.1c-0.9,0-1.5-0.6-1.4-1.4c0-0.8,0.6-1.3,1.4-1.3c0.2,0,0.4,0,0.6-0.1C42.8,0,44.2,0,45.7,0
		z M51.5,20.7c-5.6,2.8-7,9.4-4.7,13.8c2.8,5.4,9.4,7.4,14.5,4.3c5.5-3.3,6.4-10.3,3.1-14.9c-1.8-2.4-4.2-3.8-7.1-4.2
		c-1-0.1-2.1-0.3-3.1,0.1c0,0.2,0.1,0.2,0.1,0.3c0.7,2,1.4,3.9,2,5.9c0.5,1.4,0.9,2.9,1.4,4.4c0.2,0.6-0.2,1.2-0.8,1.4
		c-0.6,0.2-1.2,0-1.5-0.6c-0.2-0.3-0.3-0.6-0.4-0.9c-0.6-1.7-1.2-3.3-1.8-5C52.6,23.8,52,22.3,51.5,20.7z M23.2,30.9
		c-0.2,0-0.3,0-0.5,0c-3,0-6,0-9,0c-0.6,0-1.1-0.3-1.5-0.7c-0.3-0.3-0.4-0.7-0.3-1.1c0.1-0.3,0.2-0.7,0.4-1c1.1-2.5,2.2-5,3.3-7.6
		c0.1-0.2,0.1-0.3,0.2-0.5c-3.5-1.2-8.2-0.1-11.1,3.6c-3,3.8-2.6,9.2,0,12.5c2.9,3.7,7.9,5.1,12.2,3.3
		C21.1,37.8,23.1,33.7,23.2,30.9z M48.1,10.9c-0.6-0.3-22.3-0.4-22.9-0.2c2.3,5.3,4.5,10.7,6.8,16.1C37.4,21.4,42.9,16.3,48.1,10.9z
		 M22.8,12.1c0,0-0.1,0-0.1,0c-0.1,0.2-0.2,0.3-0.3,0.5c-0.9,1.9-1.7,3.8-2.6,5.6c-0.2,0.4-0.1,0.5,0.2,0.7c1.9,1.2,3.4,2.8,4.5,4.9
		c0.7,1.2,1.1,2.5,1.4,3.9c0.1,0.2,0.1,0.4,0.4,0.4c0.8,0,1.6,0,2.5,0c0.2,0,0.5,0,0.8-0.1C27.3,22.7,25.1,17.4,22.8,12.1z
		 M23.3,28.1c-0.3-0.9-0.6-1.7-0.9-2.5c-0.7-1.6-1.9-2.8-3.1-3.9c-0.4-0.4-0.6-0.3-0.9,0.2c-0.2,0.3-0.4,0.7-0.5,1
		c-0.7,1.5-1.3,2.9-2,4.4c-0.4,0.8-0.4,0.9,0.6,0.9c2.2,0,4.4,0,6.6,0C23,28.1,23.1,28.1,23.3,28.1z"/>
</g>
</svg>
