<?xml version="1.0" encoding="utf-8"?>
<!-- Generator: Adobe Illustrator 23.0.1, SVG Export Plug-In . SVG Version: 6.00 Build 0)  -->
<svg version="1.1"
	 id="svg19052" xmlns:cc="http://creativecommons.org/ns#" xmlns:dc="http://purl.org/dc/elements/1.1/" xmlns:inkscape="http://www.inkscape.org/namespaces/inkscape" xmlns:rdf="http://www.w3.org/1999/02/22-rdf-syntax-ns#" xmlns:sodipodi="http://sodipodi.sourceforge.net/DTD/sodipodi-0.dtd" xmlns:svg="http://www.w3.org/2000/svg"
	 xmlns="http://www.w3.org/2000/svg" xmlns:xlink="http://www.w3.org/1999/xlink" x="0px" y="0px" viewBox="0 0 40 40"
	 style="enable-background:new 0 0 40 40;" xml:space="preserve">
<style type="text/css">
	.st0{fill:#B48B91;}
	.st1{enable-background:new    ;}
	.st2{fill:#FFFFFF;}
</style>
<sodipodi:namedview  bordercolor="#666666" borderopacity="1" gridtolerance="10" guidetolerance="10" id="namedview19054" inkscape:current-layer="g19060" inkscape:cx="479.09063" inkscape:cy="73.316223" inkscape:pageopacity="0" inkscape:pageshadow="2" inkscape:window-height="988" inkscape:window-maximized="1" inkscape:window-width="1680" inkscape:window-x="1272" inkscape:window-y="-8" inkscape:zoom="2.3787301" objecttolerance="10" pagecolor="#ffffff" showgrid="false">
	</sodipodi:namedview>
<g>
	<rect class="st0" width="40" height="40"/>
	<g class="st1">
		<path class="st2" d="M15.9,11.5h4.2c1.1,0,2.1,0.1,2.8,0.3c0.7,0.2,1.3,0.4,1.8,0.8c0.5,0.4,0.9,0.9,1.2,1.6
			c0.3,0.6,0.4,1.3,0.4,2.1c0,1-0.2,1.8-0.7,2.5s-1.1,1.2-2,1.6c1.1,0.3,1.9,0.8,2.5,1.6s0.9,1.8,0.9,3c0,1.7-0.5,2.9-1.5,3.8
			c-1,0.8-2.7,1.3-5.1,1.3h-4.5c-0.2,0-0.3,0-0.4-0.1c-0.1-0.1-0.1-0.2-0.1-0.4V12.1c0-0.2,0-0.3,0.1-0.4
			C15.6,11.6,15.7,11.5,15.9,11.5z M19,19.1h0.8c1,0,1.8-0.2,2.2-0.6s0.7-1,0.7-1.9c0-0.7-0.2-1.3-0.7-1.7c-0.4-0.4-1.1-0.6-2-0.6
			h-1V19.1z M19,27.1h1c1.2,0,2.1-0.2,2.6-0.6s0.8-1.1,0.8-1.9s-0.2-1.5-0.7-1.9c-0.5-0.5-1.4-0.7-2.6-0.7h-1L19,27.1L19,27.1z"/>
	</g>
</g>
</svg>
